G04 #@! TF.GenerationSoftware,KiCad,Pcbnew,(5.1.9)-1*
G04 #@! TF.CreationDate,2022-09-15T15:00:03+09:00*
G04 #@! TF.ProjectId,MZ-80B,4d5a2d38-3042-42e6-9b69-6361645f7063,rev?*
G04 #@! TF.SameCoordinates,PX53920b0PY93c3260*
G04 #@! TF.FileFunction,Soldermask,Bot*
G04 #@! TF.FilePolarity,Negative*
%FSLAX46Y46*%
G04 Gerber Fmt 4.6, Leading zero omitted, Abs format (unit mm)*
G04 Created by KiCad (PCBNEW (5.1.9)-1) date 2022-09-15 15:00:03*
%MOMM*%
%LPD*%
G01*
G04 APERTURE LIST*
%ADD10C,3.200000*%
%ADD11C,1.600000*%
%ADD12O,1.600000X1.600000*%
%ADD13R,1.600000X2.400000*%
%ADD14O,1.600000X2.400000*%
%ADD15R,2.400000X1.600000*%
%ADD16O,2.400000X1.600000*%
%ADD17R,1.700000X1.700000*%
%ADD18O,1.700000X1.700000*%
%ADD19R,1.600000X1.600000*%
G04 APERTURE END LIST*
D10*
X5000000Y95000000D03*
X95000000Y95000000D03*
X95000000Y5000000D03*
X5000000Y5000000D03*
D11*
X60325000Y61595000D03*
X60325000Y59095000D03*
X91440000Y69175000D03*
X91440000Y66675000D03*
X91440000Y61595000D03*
D12*
X91440000Y53975000D03*
X78740000Y76200000D03*
D11*
X86360000Y76200000D03*
D12*
X48260000Y74930000D03*
D11*
X55880000Y74930000D03*
X81915000Y94615000D03*
D12*
X81915000Y86995000D03*
D13*
X64135000Y32385000D03*
D14*
X97155000Y47625000D03*
X66675000Y32385000D03*
X94615000Y47625000D03*
X69215000Y32385000D03*
X92075000Y47625000D03*
X71755000Y32385000D03*
X89535000Y47625000D03*
X74295000Y32385000D03*
X86995000Y47625000D03*
X76835000Y32385000D03*
X84455000Y47625000D03*
X79375000Y32385000D03*
X81915000Y47625000D03*
X81915000Y32385000D03*
X79375000Y47625000D03*
X84455000Y32385000D03*
X76835000Y47625000D03*
X86995000Y32385000D03*
X74295000Y47625000D03*
X89535000Y32385000D03*
X71755000Y47625000D03*
X92075000Y32385000D03*
X69215000Y47625000D03*
X94615000Y32385000D03*
X66675000Y47625000D03*
X97155000Y32385000D03*
X64135000Y47625000D03*
D15*
X17780000Y19685000D03*
D16*
X25400000Y1905000D03*
X17780000Y17145000D03*
X25400000Y4445000D03*
X17780000Y14605000D03*
X25400000Y6985000D03*
X17780000Y12065000D03*
X25400000Y9525000D03*
X17780000Y9525000D03*
X25400000Y12065000D03*
X17780000Y6985000D03*
X25400000Y14605000D03*
X17780000Y4445000D03*
X25400000Y17145000D03*
X17780000Y1905000D03*
X25400000Y19685000D03*
D15*
X33020000Y19685000D03*
D16*
X40640000Y1905000D03*
X33020000Y17145000D03*
X40640000Y4445000D03*
X33020000Y14605000D03*
X40640000Y6985000D03*
X33020000Y12065000D03*
X40640000Y9525000D03*
X33020000Y9525000D03*
X40640000Y12065000D03*
X33020000Y6985000D03*
X40640000Y14605000D03*
X33020000Y4445000D03*
X40640000Y17145000D03*
X33020000Y1905000D03*
X40640000Y19685000D03*
X55880000Y19685000D03*
X48260000Y1905000D03*
X55880000Y17145000D03*
X48260000Y4445000D03*
X55880000Y14605000D03*
X48260000Y6985000D03*
X55880000Y12065000D03*
X48260000Y9525000D03*
X55880000Y9525000D03*
X48260000Y12065000D03*
X55880000Y6985000D03*
X48260000Y14605000D03*
X55880000Y4445000D03*
X48260000Y17145000D03*
X55880000Y1905000D03*
D15*
X48260000Y19685000D03*
D16*
X70485000Y19685000D03*
X62865000Y1905000D03*
X70485000Y17145000D03*
X62865000Y4445000D03*
X70485000Y14605000D03*
X62865000Y6985000D03*
X70485000Y12065000D03*
X62865000Y9525000D03*
X70485000Y9525000D03*
X62865000Y12065000D03*
X70485000Y6985000D03*
X62865000Y14605000D03*
X70485000Y4445000D03*
X62865000Y17145000D03*
X70485000Y1905000D03*
D15*
X62865000Y19685000D03*
X17780000Y41910000D03*
D16*
X25400000Y26670000D03*
X17780000Y39370000D03*
X25400000Y29210000D03*
X17780000Y36830000D03*
X25400000Y31750000D03*
X17780000Y34290000D03*
X25400000Y34290000D03*
X17780000Y31750000D03*
X25400000Y36830000D03*
X17780000Y29210000D03*
X25400000Y39370000D03*
X17780000Y26670000D03*
X25400000Y41910000D03*
X40640000Y41910000D03*
X33020000Y26670000D03*
X40640000Y39370000D03*
X33020000Y29210000D03*
X40640000Y36830000D03*
X33020000Y31750000D03*
X40640000Y34290000D03*
X33020000Y34290000D03*
X40640000Y31750000D03*
X33020000Y36830000D03*
X40640000Y29210000D03*
X33020000Y39370000D03*
X40640000Y26670000D03*
D15*
X33020000Y41910000D03*
X48260000Y41910000D03*
D16*
X55880000Y26670000D03*
X48260000Y39370000D03*
X55880000Y29210000D03*
X48260000Y36830000D03*
X55880000Y31750000D03*
X48260000Y34290000D03*
X55880000Y34290000D03*
X48260000Y31750000D03*
X55880000Y36830000D03*
X48260000Y29210000D03*
X55880000Y39370000D03*
X48260000Y26670000D03*
X55880000Y41910000D03*
D15*
X17145000Y72390000D03*
D16*
X24765000Y49530000D03*
X17145000Y69850000D03*
X24765000Y52070000D03*
X17145000Y67310000D03*
X24765000Y54610000D03*
X17145000Y64770000D03*
X24765000Y57150000D03*
X17145000Y62230000D03*
X24765000Y59690000D03*
X17145000Y59690000D03*
X24765000Y62230000D03*
X17145000Y57150000D03*
X24765000Y64770000D03*
X17145000Y54610000D03*
X24765000Y67310000D03*
X17145000Y52070000D03*
X24765000Y69850000D03*
X17145000Y49530000D03*
X24765000Y72390000D03*
D15*
X64135000Y71755000D03*
D16*
X71755000Y56515000D03*
X64135000Y69215000D03*
X71755000Y59055000D03*
X64135000Y66675000D03*
X71755000Y61595000D03*
X64135000Y64135000D03*
X71755000Y64135000D03*
X64135000Y61595000D03*
X71755000Y66675000D03*
X64135000Y59055000D03*
X71755000Y69215000D03*
X64135000Y56515000D03*
X71755000Y71755000D03*
D15*
X78740000Y69215000D03*
D16*
X86360000Y53975000D03*
X78740000Y66675000D03*
X86360000Y56515000D03*
X78740000Y64135000D03*
X86360000Y59055000D03*
X78740000Y61595000D03*
X86360000Y61595000D03*
X78740000Y59055000D03*
X86360000Y64135000D03*
X78740000Y56515000D03*
X86360000Y66675000D03*
X78740000Y53975000D03*
X86360000Y69215000D03*
D15*
X17145000Y94615000D03*
D16*
X24765000Y79375000D03*
X17145000Y92075000D03*
X24765000Y81915000D03*
X17145000Y89535000D03*
X24765000Y84455000D03*
X17145000Y86995000D03*
X24765000Y86995000D03*
X17145000Y84455000D03*
X24765000Y89535000D03*
X17145000Y81915000D03*
X24765000Y92075000D03*
X17145000Y79375000D03*
X24765000Y94615000D03*
X40640000Y94615000D03*
X33020000Y79375000D03*
X40640000Y92075000D03*
X33020000Y81915000D03*
X40640000Y89535000D03*
X33020000Y84455000D03*
X40640000Y86995000D03*
X33020000Y86995000D03*
X40640000Y84455000D03*
X33020000Y89535000D03*
X40640000Y81915000D03*
X33020000Y92075000D03*
X40640000Y79375000D03*
D15*
X33020000Y94615000D03*
D16*
X58420000Y94615000D03*
X50800000Y79375000D03*
X58420000Y92075000D03*
X50800000Y81915000D03*
X58420000Y89535000D03*
X50800000Y84455000D03*
X58420000Y86995000D03*
X50800000Y86995000D03*
X58420000Y84455000D03*
X50800000Y89535000D03*
X58420000Y81915000D03*
X50800000Y92075000D03*
X58420000Y79375000D03*
D15*
X50800000Y94615000D03*
D16*
X74930000Y94615000D03*
X67310000Y79375000D03*
X74930000Y92075000D03*
X67310000Y81915000D03*
X74930000Y89535000D03*
X67310000Y84455000D03*
X74930000Y86995000D03*
X67310000Y86995000D03*
X74930000Y84455000D03*
X67310000Y89535000D03*
X74930000Y81915000D03*
X67310000Y92075000D03*
X74930000Y79375000D03*
D15*
X67310000Y94615000D03*
D11*
X22860000Y22860000D03*
X20360000Y22860000D03*
X50840000Y22860000D03*
X53340000Y22860000D03*
X50840000Y70485000D03*
X53340000Y70485000D03*
X83780000Y72390000D03*
X81280000Y72390000D03*
X22225000Y75565000D03*
X19725000Y75565000D03*
X38100000Y22860000D03*
X35600000Y22860000D03*
X19090000Y97790000D03*
X21590000Y97790000D03*
X50840000Y45085000D03*
X53340000Y45085000D03*
X69215000Y74930000D03*
X66715000Y74930000D03*
X65405000Y23495000D03*
X67905000Y23495000D03*
X53380000Y98130000D03*
X55880000Y98130000D03*
X38100000Y45085000D03*
X35600000Y45085000D03*
X35600000Y97790000D03*
X38100000Y97790000D03*
X72390000Y97790000D03*
X69890000Y97790000D03*
X20360000Y45085000D03*
X22860000Y45085000D03*
X60960000Y40005000D03*
X60960000Y37505000D03*
X38100000Y74930000D03*
X35600000Y74930000D03*
D17*
X5160000Y16430000D03*
D18*
X2620000Y16430000D03*
X5160000Y18970000D03*
X2620000Y18970000D03*
X5160000Y21510000D03*
X2620000Y21510000D03*
X5160000Y24050000D03*
X2620000Y24050000D03*
X5160000Y26590000D03*
X2620000Y26590000D03*
X5160000Y29130000D03*
X2620000Y29130000D03*
X5160000Y31670000D03*
X2620000Y31670000D03*
X5160000Y34210000D03*
X2620000Y34210000D03*
X5160000Y36750000D03*
X2620000Y36750000D03*
X5160000Y39290000D03*
X2620000Y39290000D03*
X5160000Y41830000D03*
X2620000Y41830000D03*
X5160000Y44370000D03*
X2620000Y44370000D03*
X5160000Y46910000D03*
X2620000Y46910000D03*
X5160000Y49450000D03*
X2620000Y49450000D03*
X5160000Y51990000D03*
X2620000Y51990000D03*
X5160000Y54530000D03*
X2620000Y54530000D03*
X5160000Y57070000D03*
X2620000Y57070000D03*
X5160000Y59610000D03*
X2620000Y59610000D03*
X5160000Y62150000D03*
X2620000Y62150000D03*
X5160000Y64690000D03*
X2620000Y64690000D03*
D17*
X5080000Y72390000D03*
D18*
X2540000Y72390000D03*
X5080000Y74930000D03*
X2540000Y74930000D03*
X5080000Y77470000D03*
X2540000Y77470000D03*
X5080000Y80010000D03*
X2540000Y80010000D03*
X5080000Y82550000D03*
X2540000Y82550000D03*
D19*
X11430000Y90170000D03*
D11*
X8930000Y90170000D03*
D15*
X33020000Y71755000D03*
D16*
X40640000Y53975000D03*
X33020000Y69215000D03*
X40640000Y56515000D03*
X33020000Y66675000D03*
X40640000Y59055000D03*
X33020000Y64135000D03*
X40640000Y61595000D03*
X33020000Y61595000D03*
X40640000Y64135000D03*
X33020000Y59055000D03*
X40640000Y66675000D03*
X33020000Y56515000D03*
X40640000Y69215000D03*
X33020000Y53975000D03*
X40640000Y71755000D03*
X55880000Y67310000D03*
X48260000Y49530000D03*
X55880000Y64770000D03*
X48260000Y52070000D03*
X55880000Y62230000D03*
X48260000Y54610000D03*
X55880000Y59690000D03*
X48260000Y57150000D03*
X55880000Y57150000D03*
X48260000Y59690000D03*
X55880000Y54610000D03*
X48260000Y62230000D03*
X55880000Y52070000D03*
X48260000Y64770000D03*
X55880000Y49530000D03*
D15*
X48260000Y67310000D03*
M02*
