M48
; DRILL file {KiCad (5.1.9)-1} date 09/15/22 15:00:06
; FORMAT={-:-/ absolute / metric / decimal}
; #@! TF.CreationDate,2022-09-15T15:00:06+09:00
; #@! TF.GenerationSoftware,Kicad,Pcbnew,(5.1.9)-1
FMAT,2
METRIC
T1C0.300
T2C0.800
T3C1.000
T4C3.200
%
G90
G05
T1
X9.347Y26.66
X19.833Y7.933
X27.339Y62.634
X27.745Y59.602
X27.776Y25.867
X27.916Y24.092
X28.788Y23.988
X29.131Y57.785
X31.52Y88.682
X32.815Y23.669
X36.994Y81.194
X38.246Y56.694
X40.684Y73.805
X41.139Y75.943
X42.861Y32.987
X43.066Y19.457
X45.551Y12.876
X47.558Y77.038
X49.266Y55.802
X49.427Y20.961
X50.74Y20.934
X56.596Y35.578
X56.723Y83.111
X59.319Y77.453
X59.654Y23.417
X61.509Y36.15
X65.22Y50.55
X66.998Y12.762
X67.554Y7.756
X68.11Y12.593
X69.239Y83.436
X69.787Y96.466
X75.565Y13.429
T2
X8.93Y90.17
X11.43Y90.17
X17.145Y94.615
X17.145Y92.075
X17.145Y89.535
X17.145Y86.995
X17.145Y84.455
X17.145Y81.915
X17.145Y79.375
X17.145Y72.39
X17.145Y69.85
X17.145Y67.31
X17.145Y64.77
X17.145Y62.23
X17.145Y59.69
X17.145Y57.15
X17.145Y54.61
X17.145Y52.07
X17.145Y49.53
X17.78Y41.91
X17.78Y39.37
X17.78Y36.83
X17.78Y34.29
X17.78Y31.75
X17.78Y29.21
X17.78Y26.67
X17.78Y19.685
X17.78Y17.145
X17.78Y14.605
X17.78Y12.065
X17.78Y9.525
X17.78Y6.985
X17.78Y4.445
X17.78Y1.905
X19.09Y97.79
X19.725Y75.565
X20.36Y45.085
X20.36Y22.86
X21.59Y97.79
X22.225Y75.565
X22.86Y45.085
X22.86Y22.86
X24.765Y94.615
X24.765Y92.075
X24.765Y89.535
X24.765Y86.995
X24.765Y84.455
X24.765Y81.915
X24.765Y79.375
X24.765Y72.39
X24.765Y69.85
X24.765Y67.31
X24.765Y64.77
X24.765Y62.23
X24.765Y59.69
X24.765Y57.15
X24.765Y54.61
X24.765Y52.07
X24.765Y49.53
X25.4Y41.91
X25.4Y39.37
X25.4Y36.83
X25.4Y34.29
X25.4Y31.75
X25.4Y29.21
X25.4Y26.67
X25.4Y19.685
X25.4Y17.145
X25.4Y14.605
X25.4Y12.065
X25.4Y9.525
X25.4Y6.985
X25.4Y4.445
X25.4Y1.905
X33.02Y94.615
X33.02Y92.075
X33.02Y89.535
X33.02Y86.995
X33.02Y84.455
X33.02Y81.915
X33.02Y79.375
X33.02Y71.755
X33.02Y69.215
X33.02Y66.675
X33.02Y64.135
X33.02Y61.595
X33.02Y59.055
X33.02Y56.515
X33.02Y53.975
X33.02Y41.91
X33.02Y39.37
X33.02Y36.83
X33.02Y34.29
X33.02Y31.75
X33.02Y29.21
X33.02Y26.67
X33.02Y19.685
X33.02Y17.145
X33.02Y14.605
X33.02Y12.065
X33.02Y9.525
X33.02Y6.985
X33.02Y4.445
X33.02Y1.905
X35.6Y97.79
X35.6Y74.93
X35.6Y45.085
X35.6Y22.86
X38.1Y97.79
X38.1Y74.93
X38.1Y45.085
X38.1Y22.86
X40.64Y94.615
X40.64Y92.075
X40.64Y89.535
X40.64Y86.995
X40.64Y84.455
X40.64Y81.915
X40.64Y79.375
X40.64Y71.755
X40.64Y69.215
X40.64Y66.675
X40.64Y64.135
X40.64Y61.595
X40.64Y59.055
X40.64Y56.515
X40.64Y53.975
X40.64Y41.91
X40.64Y39.37
X40.64Y36.83
X40.64Y34.29
X40.64Y31.75
X40.64Y29.21
X40.64Y26.67
X40.64Y19.685
X40.64Y17.145
X40.64Y14.605
X40.64Y12.065
X40.64Y9.525
X40.64Y6.985
X40.64Y4.445
X40.64Y1.905
X48.26Y74.93
X48.26Y67.31
X48.26Y64.77
X48.26Y62.23
X48.26Y59.69
X48.26Y57.15
X48.26Y54.61
X48.26Y52.07
X48.26Y49.53
X48.26Y41.91
X48.26Y39.37
X48.26Y36.83
X48.26Y34.29
X48.26Y31.75
X48.26Y29.21
X48.26Y26.67
X48.26Y19.685
X48.26Y17.145
X48.26Y14.605
X48.26Y12.065
X48.26Y9.525
X48.26Y6.985
X48.26Y4.445
X48.26Y1.905
X50.8Y94.615
X50.8Y92.075
X50.8Y89.535
X50.8Y86.995
X50.8Y84.455
X50.8Y81.915
X50.8Y79.375
X50.84Y70.485
X50.84Y45.085
X50.84Y22.86
X53.34Y70.485
X53.34Y45.085
X53.34Y22.86
X53.38Y98.13
X55.88Y98.13
X55.88Y74.93
X55.88Y67.31
X55.88Y64.77
X55.88Y62.23
X55.88Y59.69
X55.88Y57.15
X55.88Y54.61
X55.88Y52.07
X55.88Y49.53
X55.88Y41.91
X55.88Y39.37
X55.88Y36.83
X55.88Y34.29
X55.88Y31.75
X55.88Y29.21
X55.88Y26.67
X55.88Y19.685
X55.88Y17.145
X55.88Y14.605
X55.88Y12.065
X55.88Y9.525
X55.88Y6.985
X55.88Y4.445
X55.88Y1.905
X58.42Y94.615
X58.42Y92.075
X58.42Y89.535
X58.42Y86.995
X58.42Y84.455
X58.42Y81.915
X58.42Y79.375
X60.325Y61.595
X60.325Y59.095
X60.96Y40.005
X60.96Y37.505
X62.865Y19.685
X62.865Y17.145
X62.865Y14.605
X62.865Y12.065
X62.865Y9.525
X62.865Y6.985
X62.865Y4.445
X62.865Y1.905
X64.135Y71.755
X64.135Y69.215
X64.135Y66.675
X64.135Y64.135
X64.135Y61.595
X64.135Y59.055
X64.135Y56.515
X64.135Y47.625
X64.135Y32.385
X65.405Y23.495
X66.675Y47.625
X66.675Y32.385
X66.715Y74.93
X67.31Y94.615
X67.31Y92.075
X67.31Y89.535
X67.31Y86.995
X67.31Y84.455
X67.31Y81.915
X67.31Y79.375
X67.905Y23.495
X69.215Y74.93
X69.215Y47.625
X69.215Y32.385
X69.89Y97.79
X70.485Y19.685
X70.485Y17.145
X70.485Y14.605
X70.485Y12.065
X70.485Y9.525
X70.485Y6.985
X70.485Y4.445
X70.485Y1.905
X71.755Y71.755
X71.755Y69.215
X71.755Y66.675
X71.755Y64.135
X71.755Y61.595
X71.755Y59.055
X71.755Y56.515
X71.755Y47.625
X71.755Y32.385
X72.39Y97.79
X74.295Y47.625
X74.295Y32.385
X74.93Y94.615
X74.93Y92.075
X74.93Y89.535
X74.93Y86.995
X74.93Y84.455
X74.93Y81.915
X74.93Y79.375
X76.835Y47.625
X76.835Y32.385
X78.74Y76.2
X78.74Y69.215
X78.74Y66.675
X78.74Y64.135
X78.74Y61.595
X78.74Y59.055
X78.74Y56.515
X78.74Y53.975
X79.375Y47.625
X79.375Y32.385
X81.28Y72.39
X81.915Y94.615
X81.915Y86.995
X81.915Y47.625
X81.915Y32.385
X83.78Y72.39
X84.455Y47.625
X84.455Y32.385
X86.36Y76.2
X86.36Y69.215
X86.36Y66.675
X86.36Y64.135
X86.36Y61.595
X86.36Y59.055
X86.36Y56.515
X86.36Y53.975
X86.995Y47.625
X86.995Y32.385
X89.535Y47.625
X89.535Y32.385
X91.44Y69.175
X91.44Y66.675
X91.44Y61.595
X91.44Y53.975
X92.075Y47.625
X92.075Y32.385
X94.615Y47.625
X94.615Y32.385
X97.155Y47.625
X97.155Y32.385
T3
X2.54Y82.55
X2.54Y80.01
X2.54Y77.47
X2.54Y74.93
X2.54Y72.39
X2.62Y64.69
X2.62Y62.15
X2.62Y59.61
X2.62Y57.07
X2.62Y54.53
X2.62Y51.99
X2.62Y49.45
X2.62Y46.91
X2.62Y44.37
X2.62Y41.83
X2.62Y39.29
X2.62Y36.75
X2.62Y34.21
X2.62Y31.67
X2.62Y29.13
X2.62Y26.59
X2.62Y24.05
X2.62Y21.51
X2.62Y18.97
X2.62Y16.43
X5.08Y82.55
X5.08Y80.01
X5.08Y77.47
X5.08Y74.93
X5.08Y72.39
X5.16Y64.69
X5.16Y62.15
X5.16Y59.61
X5.16Y57.07
X5.16Y54.53
X5.16Y51.99
X5.16Y49.45
X5.16Y46.91
X5.16Y44.37
X5.16Y41.83
X5.16Y39.29
X5.16Y36.75
X5.16Y34.21
X5.16Y31.67
X5.16Y29.13
X5.16Y26.59
X5.16Y24.05
X5.16Y21.51
X5.16Y18.97
X5.16Y16.43
T4
X5.0Y95.0
X5.0Y5.0
X95.0Y95.0
X95.0Y5.0
T0
M30
