G04 #@! TF.GenerationSoftware,KiCad,Pcbnew,(5.1.9)-1*
G04 #@! TF.CreationDate,2022-12-17T10:38:54+09:00*
G04 #@! TF.ProjectId,MZ-80B_GRAM1,4d5a2d38-3042-45f4-9752-414d312e6b69,rev?*
G04 #@! TF.SameCoordinates,PX53920b0PY93c3260*
G04 #@! TF.FileFunction,Legend,Top*
G04 #@! TF.FilePolarity,Positive*
%FSLAX46Y46*%
G04 Gerber Fmt 4.6, Leading zero omitted, Abs format (unit mm)*
G04 Created by KiCad (PCBNEW (5.1.9)-1) date 2022-12-17 10:38:54*
%MOMM*%
%LPD*%
G01*
G04 APERTURE LIST*
%ADD10C,0.100000*%
%ADD11C,0.300000*%
%ADD12C,0.150000*%
%ADD13C,0.400000*%
%ADD14C,0.120000*%
G04 APERTURE END LIST*
D10*
G36*
X77556000Y64682000D02*
G01*
X76056000Y63682000D01*
X76056000Y65682000D01*
X77556000Y64682000D01*
G37*
X77556000Y64682000D02*
X76056000Y63682000D01*
X76056000Y65682000D01*
X77556000Y64682000D01*
G36*
X3024000Y129810000D02*
G01*
X1524000Y128810000D01*
X1524000Y130810000D01*
X3024000Y129810000D01*
G37*
X3024000Y129810000D02*
X1524000Y128810000D01*
X1524000Y130810000D01*
X3024000Y129810000D01*
G36*
X8500000Y60500000D02*
G01*
X7000000Y61500000D01*
X8500000Y62500000D01*
X8500000Y60500000D01*
G37*
X8500000Y60500000D02*
X7000000Y61500000D01*
X8500000Y62500000D01*
X8500000Y60500000D01*
D11*
X90821428Y70964286D02*
X89750000Y70964286D01*
X89535714Y71035715D01*
X89392857Y71178572D01*
X89321428Y71392858D01*
X89321428Y71535715D01*
X89321428Y69607143D02*
X90107142Y69607143D01*
X90250000Y69678572D01*
X90321428Y69821429D01*
X90321428Y70107143D01*
X90250000Y70250000D01*
X89392857Y69607143D02*
X89321428Y69750000D01*
X89321428Y70107143D01*
X89392857Y70250000D01*
X89535714Y70321429D01*
X89678571Y70321429D01*
X89821428Y70250000D01*
X89892857Y70107143D01*
X89892857Y69750000D01*
X89964285Y69607143D01*
X90321428Y68892858D02*
X88821428Y68892858D01*
X90250000Y68892858D02*
X90321428Y68750000D01*
X90321428Y68464286D01*
X90250000Y68321429D01*
X90178571Y68250000D01*
X90035714Y68178572D01*
X89607142Y68178572D01*
X89464285Y68250000D01*
X89392857Y68321429D01*
X89321428Y68464286D01*
X89321428Y68750000D01*
X89392857Y68892858D01*
X89321428Y66892858D02*
X90107142Y66892858D01*
X90250000Y66964286D01*
X90321428Y67107143D01*
X90321428Y67392858D01*
X90250000Y67535715D01*
X89392857Y66892858D02*
X89321428Y67035715D01*
X89321428Y67392858D01*
X89392857Y67535715D01*
X89535714Y67607143D01*
X89678571Y67607143D01*
X89821428Y67535715D01*
X89892857Y67392858D01*
X89892857Y67035715D01*
X89964285Y66892858D01*
X90321428Y66178572D02*
X89321428Y66178572D01*
X90178571Y66178572D02*
X90250000Y66107143D01*
X90321428Y65964286D01*
X90321428Y65750000D01*
X90250000Y65607143D01*
X90107142Y65535715D01*
X89321428Y65535715D01*
X89392857Y64250000D02*
X89321428Y64392858D01*
X89321428Y64678572D01*
X89392857Y64821429D01*
X89535714Y64892858D01*
X90107142Y64892858D01*
X90250000Y64821429D01*
X90321428Y64678572D01*
X90321428Y64392858D01*
X90250000Y64250000D01*
X90107142Y64178572D01*
X89964285Y64178572D01*
X89821428Y64892858D01*
X89392857Y63607143D02*
X89321428Y63464286D01*
X89321428Y63178572D01*
X89392857Y63035715D01*
X89535714Y62964286D01*
X89607142Y62964286D01*
X89750000Y63035715D01*
X89821428Y63178572D01*
X89821428Y63392858D01*
X89892857Y63535715D01*
X90035714Y63607143D01*
X90107142Y63607143D01*
X90250000Y63535715D01*
X90321428Y63392858D01*
X90321428Y63178572D01*
X90250000Y63035715D01*
X89392857Y61750000D02*
X89321428Y61892858D01*
X89321428Y62178572D01*
X89392857Y62321429D01*
X89535714Y62392858D01*
X90107142Y62392858D01*
X90250000Y62321429D01*
X90321428Y62178572D01*
X90321428Y61892858D01*
X90250000Y61750000D01*
X90107142Y61678572D01*
X89964285Y61678572D01*
X89821428Y62392858D01*
X90321428Y60035715D02*
X89321428Y59678572D01*
X90321428Y59321429D01*
X89392857Y58178572D02*
X89321428Y58321429D01*
X89321428Y58607143D01*
X89392857Y58750000D01*
X89535714Y58821429D01*
X90107142Y58821429D01*
X90250000Y58750000D01*
X90321428Y58607143D01*
X90321428Y58321429D01*
X90250000Y58178572D01*
X90107142Y58107143D01*
X89964285Y58107143D01*
X89821428Y58821429D01*
X89321428Y57464286D02*
X90321428Y57464286D01*
X90035714Y57464286D02*
X90178571Y57392858D01*
X90250000Y57321429D01*
X90321428Y57178572D01*
X90321428Y57035715D01*
X89392857Y56607143D02*
X89321428Y56464286D01*
X89321428Y56178572D01*
X89392857Y56035715D01*
X89535714Y55964286D01*
X89607142Y55964286D01*
X89750000Y56035715D01*
X89821428Y56178572D01*
X89821428Y56392858D01*
X89892857Y56535715D01*
X90035714Y56607143D01*
X90107142Y56607143D01*
X90250000Y56535715D01*
X90321428Y56392858D01*
X90321428Y56178572D01*
X90250000Y56035715D01*
X89321428Y55321429D02*
X90321428Y55321429D01*
X90821428Y55321429D02*
X90750000Y55392858D01*
X90678571Y55321429D01*
X90750000Y55250000D01*
X90821428Y55321429D01*
X90678571Y55321429D01*
X89321428Y54392858D02*
X89392857Y54535715D01*
X89464285Y54607143D01*
X89607142Y54678572D01*
X90035714Y54678572D01*
X90178571Y54607143D01*
X90250000Y54535715D01*
X90321428Y54392858D01*
X90321428Y54178572D01*
X90250000Y54035715D01*
X90178571Y53964286D01*
X90035714Y53892858D01*
X89607142Y53892858D01*
X89464285Y53964286D01*
X89392857Y54035715D01*
X89321428Y54178572D01*
X89321428Y54392858D01*
X90321428Y53250000D02*
X89321428Y53250000D01*
X90178571Y53250000D02*
X90250000Y53178572D01*
X90321428Y53035715D01*
X90321428Y52821429D01*
X90250000Y52678572D01*
X90107142Y52607143D01*
X89321428Y52607143D01*
D12*
X58491380Y114945334D02*
X58491380Y114373905D01*
X58491380Y114659620D02*
X57491380Y114659620D01*
X57634238Y114564381D01*
X57729476Y114469143D01*
X57777095Y114373905D01*
X57491380Y115564381D02*
X57491380Y115659620D01*
X57539000Y115754858D01*
X57586619Y115802477D01*
X57681857Y115850096D01*
X57872333Y115897715D01*
X58110428Y115897715D01*
X58300904Y115850096D01*
X58396142Y115802477D01*
X58443761Y115754858D01*
X58491380Y115659620D01*
X58491380Y115564381D01*
X58443761Y115469143D01*
X58396142Y115421524D01*
X58300904Y115373905D01*
X58110428Y115326286D01*
X57872333Y115326286D01*
X57681857Y115373905D01*
X57586619Y115421524D01*
X57539000Y115469143D01*
X57491380Y115564381D01*
X57491380Y116516762D02*
X57491380Y116612000D01*
X57539000Y116707239D01*
X57586619Y116754858D01*
X57681857Y116802477D01*
X57872333Y116850096D01*
X58110428Y116850096D01*
X58300904Y116802477D01*
X58396142Y116754858D01*
X58443761Y116707239D01*
X58491380Y116612000D01*
X58491380Y116516762D01*
X58443761Y116421524D01*
X58396142Y116373905D01*
X58300904Y116326286D01*
X58110428Y116278667D01*
X57872333Y116278667D01*
X57681857Y116326286D01*
X57586619Y116373905D01*
X57539000Y116421524D01*
X57491380Y116516762D01*
X82264285Y128653286D02*
X82264285Y127986620D01*
X82026190Y129034239D02*
X81788095Y128319953D01*
X82407142Y128319953D01*
X82692857Y128986620D02*
X83359523Y128986620D01*
X82930952Y127986620D01*
X45982142Y116032620D02*
X46077380Y116032620D01*
X46172619Y115985000D01*
X46220238Y115937381D01*
X46267857Y115842143D01*
X46315476Y115651667D01*
X46315476Y115413572D01*
X46267857Y115223096D01*
X46220238Y115127858D01*
X46172619Y115080239D01*
X46077380Y115032620D01*
X45982142Y115032620D01*
X45886904Y115080239D01*
X45839285Y115127858D01*
X45791666Y115223096D01*
X45744047Y115413572D01*
X45744047Y115651667D01*
X45791666Y115842143D01*
X45839285Y115937381D01*
X45886904Y115985000D01*
X45982142Y116032620D01*
X46744047Y115127858D02*
X46791666Y115080239D01*
X46744047Y115032620D01*
X46696428Y115080239D01*
X46744047Y115127858D01*
X46744047Y115032620D01*
X47744047Y115032620D02*
X47172619Y115032620D01*
X47458333Y115032620D02*
X47458333Y116032620D01*
X47363095Y115889762D01*
X47267857Y115794524D01*
X47172619Y115746905D01*
X48601190Y115699286D02*
X48601190Y115032620D01*
X48172619Y115699286D02*
X48172619Y115175477D01*
X48220238Y115080239D01*
X48315476Y115032620D01*
X48458333Y115032620D01*
X48553571Y115080239D01*
X48601190Y115127858D01*
X49410714Y115556429D02*
X49077380Y115556429D01*
X49077380Y115032620D02*
X49077380Y116032620D01*
X49553571Y116032620D01*
X60460142Y68915620D02*
X60555380Y68915620D01*
X60650619Y68868000D01*
X60698238Y68820381D01*
X60745857Y68725143D01*
X60793476Y68534667D01*
X60793476Y68296572D01*
X60745857Y68106096D01*
X60698238Y68010858D01*
X60650619Y67963239D01*
X60555380Y67915620D01*
X60460142Y67915620D01*
X60364904Y67963239D01*
X60317285Y68010858D01*
X60269666Y68106096D01*
X60222047Y68296572D01*
X60222047Y68534667D01*
X60269666Y68725143D01*
X60317285Y68820381D01*
X60364904Y68868000D01*
X60460142Y68915620D01*
X61222047Y68010858D02*
X61269666Y67963239D01*
X61222047Y67915620D01*
X61174428Y67963239D01*
X61222047Y68010858D01*
X61222047Y67915620D01*
X62222047Y67915620D02*
X61650619Y67915620D01*
X61936333Y67915620D02*
X61936333Y68915620D01*
X61841095Y68772762D01*
X61745857Y68677524D01*
X61650619Y68629905D01*
X63079190Y68582286D02*
X63079190Y67915620D01*
X62650619Y68582286D02*
X62650619Y68058477D01*
X62698238Y67963239D01*
X62793476Y67915620D01*
X62936333Y67915620D01*
X63031571Y67963239D01*
X63079190Y68010858D01*
X63888714Y68439429D02*
X63555380Y68439429D01*
X63555380Y67915620D02*
X63555380Y68915620D01*
X64031571Y68915620D01*
X66127380Y56485953D02*
X66127380Y57152620D01*
X67127380Y56724048D01*
X66460714Y57962143D02*
X67127380Y57962143D01*
X66079761Y57724048D02*
X66794047Y57485953D01*
X66794047Y58105000D01*
X67127380Y58962143D02*
X67127380Y58485953D01*
X66127380Y58485953D01*
X67079761Y59247858D02*
X67127380Y59390715D01*
X67127380Y59628810D01*
X67079761Y59724048D01*
X67032142Y59771667D01*
X66936904Y59819286D01*
X66841666Y59819286D01*
X66746428Y59771667D01*
X66698809Y59724048D01*
X66651190Y59628810D01*
X66603571Y59438334D01*
X66555952Y59343096D01*
X66508333Y59295477D01*
X66413095Y59247858D01*
X66317857Y59247858D01*
X66222619Y59295477D01*
X66175000Y59343096D01*
X66127380Y59438334D01*
X66127380Y59676429D01*
X66175000Y59819286D01*
X67127380Y60771667D02*
X67127380Y60200239D01*
X67127380Y60485953D02*
X66127380Y60485953D01*
X66270238Y60390715D01*
X66365476Y60295477D01*
X66413095Y60200239D01*
X66127380Y61676429D02*
X66127380Y61200239D01*
X66603571Y61152620D01*
X66555952Y61200239D01*
X66508333Y61295477D01*
X66508333Y61533572D01*
X66555952Y61628810D01*
X66603571Y61676429D01*
X66698809Y61724048D01*
X66936904Y61724048D01*
X67032142Y61676429D01*
X67079761Y61628810D01*
X67127380Y61533572D01*
X67127380Y61295477D01*
X67079761Y61200239D01*
X67032142Y61152620D01*
X66127380Y62057381D02*
X66127380Y62724048D01*
X67127380Y62295477D01*
X51522380Y56485953D02*
X51522380Y57152620D01*
X52522380Y56724048D01*
X51855714Y57962143D02*
X52522380Y57962143D01*
X51474761Y57724048D02*
X52189047Y57485953D01*
X52189047Y58105000D01*
X52522380Y58962143D02*
X52522380Y58485953D01*
X51522380Y58485953D01*
X52474761Y59247858D02*
X52522380Y59390715D01*
X52522380Y59628810D01*
X52474761Y59724048D01*
X52427142Y59771667D01*
X52331904Y59819286D01*
X52236666Y59819286D01*
X52141428Y59771667D01*
X52093809Y59724048D01*
X52046190Y59628810D01*
X51998571Y59438334D01*
X51950952Y59343096D01*
X51903333Y59295477D01*
X51808095Y59247858D01*
X51712857Y59247858D01*
X51617619Y59295477D01*
X51570000Y59343096D01*
X51522380Y59438334D01*
X51522380Y59676429D01*
X51570000Y59819286D01*
X52522380Y60771667D02*
X52522380Y60200239D01*
X52522380Y60485953D02*
X51522380Y60485953D01*
X51665238Y60390715D01*
X51760476Y60295477D01*
X51808095Y60200239D01*
X51522380Y61676429D02*
X51522380Y61200239D01*
X51998571Y61152620D01*
X51950952Y61200239D01*
X51903333Y61295477D01*
X51903333Y61533572D01*
X51950952Y61628810D01*
X51998571Y61676429D01*
X52093809Y61724048D01*
X52331904Y61724048D01*
X52427142Y61676429D01*
X52474761Y61628810D01*
X52522380Y61533572D01*
X52522380Y61295477D01*
X52474761Y61200239D01*
X52427142Y61152620D01*
X51522380Y62057381D02*
X51522380Y62724048D01*
X52522380Y62295477D01*
X36282380Y55850953D02*
X36282380Y56517620D01*
X37282380Y56089048D01*
X36615714Y57327143D02*
X37282380Y57327143D01*
X36234761Y57089048D02*
X36949047Y56850953D01*
X36949047Y57470000D01*
X37282380Y58327143D02*
X37282380Y57850953D01*
X36282380Y57850953D01*
X37234761Y58612858D02*
X37282380Y58755715D01*
X37282380Y58993810D01*
X37234761Y59089048D01*
X37187142Y59136667D01*
X37091904Y59184286D01*
X36996666Y59184286D01*
X36901428Y59136667D01*
X36853809Y59089048D01*
X36806190Y58993810D01*
X36758571Y58803334D01*
X36710952Y58708096D01*
X36663333Y58660477D01*
X36568095Y58612858D01*
X36472857Y58612858D01*
X36377619Y58660477D01*
X36330000Y58708096D01*
X36282380Y58803334D01*
X36282380Y59041429D01*
X36330000Y59184286D01*
X37282380Y60136667D02*
X37282380Y59565239D01*
X37282380Y59850953D02*
X36282380Y59850953D01*
X36425238Y59755715D01*
X36520476Y59660477D01*
X36568095Y59565239D01*
X36282380Y61041429D02*
X36282380Y60565239D01*
X36758571Y60517620D01*
X36710952Y60565239D01*
X36663333Y60660477D01*
X36663333Y60898572D01*
X36710952Y60993810D01*
X36758571Y61041429D01*
X36853809Y61089048D01*
X37091904Y61089048D01*
X37187142Y61041429D01*
X37234761Y60993810D01*
X37282380Y60898572D01*
X37282380Y60660477D01*
X37234761Y60565239D01*
X37187142Y60517620D01*
X36282380Y61422381D02*
X36282380Y62089048D01*
X37282380Y61660477D01*
X21042380Y56485953D02*
X21042380Y57152620D01*
X22042380Y56724048D01*
X21375714Y57962143D02*
X22042380Y57962143D01*
X20994761Y57724048D02*
X21709047Y57485953D01*
X21709047Y58105000D01*
X22042380Y58962143D02*
X22042380Y58485953D01*
X21042380Y58485953D01*
X21994761Y59247858D02*
X22042380Y59390715D01*
X22042380Y59628810D01*
X21994761Y59724048D01*
X21947142Y59771667D01*
X21851904Y59819286D01*
X21756666Y59819286D01*
X21661428Y59771667D01*
X21613809Y59724048D01*
X21566190Y59628810D01*
X21518571Y59438334D01*
X21470952Y59343096D01*
X21423333Y59295477D01*
X21328095Y59247858D01*
X21232857Y59247858D01*
X21137619Y59295477D01*
X21090000Y59343096D01*
X21042380Y59438334D01*
X21042380Y59676429D01*
X21090000Y59819286D01*
X22042380Y60771667D02*
X22042380Y60200239D01*
X22042380Y60485953D02*
X21042380Y60485953D01*
X21185238Y60390715D01*
X21280476Y60295477D01*
X21328095Y60200239D01*
X21042380Y61676429D02*
X21042380Y61200239D01*
X21518571Y61152620D01*
X21470952Y61200239D01*
X21423333Y61295477D01*
X21423333Y61533572D01*
X21470952Y61628810D01*
X21518571Y61676429D01*
X21613809Y61724048D01*
X21851904Y61724048D01*
X21947142Y61676429D01*
X21994761Y61628810D01*
X22042380Y61533572D01*
X22042380Y61295477D01*
X21994761Y61200239D01*
X21947142Y61152620D01*
X21042380Y62057381D02*
X21042380Y62724048D01*
X22042380Y62295477D01*
X45855142Y68280620D02*
X45950380Y68280620D01*
X46045619Y68233000D01*
X46093238Y68185381D01*
X46140857Y68090143D01*
X46188476Y67899667D01*
X46188476Y67661572D01*
X46140857Y67471096D01*
X46093238Y67375858D01*
X46045619Y67328239D01*
X45950380Y67280620D01*
X45855142Y67280620D01*
X45759904Y67328239D01*
X45712285Y67375858D01*
X45664666Y67471096D01*
X45617047Y67661572D01*
X45617047Y67899667D01*
X45664666Y68090143D01*
X45712285Y68185381D01*
X45759904Y68233000D01*
X45855142Y68280620D01*
X46617047Y67375858D02*
X46664666Y67328239D01*
X46617047Y67280620D01*
X46569428Y67328239D01*
X46617047Y67375858D01*
X46617047Y67280620D01*
X47617047Y67280620D02*
X47045619Y67280620D01*
X47331333Y67280620D02*
X47331333Y68280620D01*
X47236095Y68137762D01*
X47140857Y68042524D01*
X47045619Y67994905D01*
X48474190Y67947286D02*
X48474190Y67280620D01*
X48045619Y67947286D02*
X48045619Y67423477D01*
X48093238Y67328239D01*
X48188476Y67280620D01*
X48331333Y67280620D01*
X48426571Y67328239D01*
X48474190Y67375858D01*
X49283714Y67804429D02*
X48950380Y67804429D01*
X48950380Y67280620D02*
X48950380Y68280620D01*
X49426571Y68280620D01*
X30361142Y68280620D02*
X30456380Y68280620D01*
X30551619Y68233000D01*
X30599238Y68185381D01*
X30646857Y68090143D01*
X30694476Y67899667D01*
X30694476Y67661572D01*
X30646857Y67471096D01*
X30599238Y67375858D01*
X30551619Y67328239D01*
X30456380Y67280620D01*
X30361142Y67280620D01*
X30265904Y67328239D01*
X30218285Y67375858D01*
X30170666Y67471096D01*
X30123047Y67661572D01*
X30123047Y67899667D01*
X30170666Y68090143D01*
X30218285Y68185381D01*
X30265904Y68233000D01*
X30361142Y68280620D01*
X31123047Y67375858D02*
X31170666Y67328239D01*
X31123047Y67280620D01*
X31075428Y67328239D01*
X31123047Y67375858D01*
X31123047Y67280620D01*
X32123047Y67280620D02*
X31551619Y67280620D01*
X31837333Y67280620D02*
X31837333Y68280620D01*
X31742095Y68137762D01*
X31646857Y68042524D01*
X31551619Y67994905D01*
X32980190Y67947286D02*
X32980190Y67280620D01*
X32551619Y67947286D02*
X32551619Y67423477D01*
X32599238Y67328239D01*
X32694476Y67280620D01*
X32837333Y67280620D01*
X32932571Y67328239D01*
X32980190Y67375858D01*
X33789714Y67804429D02*
X33456380Y67804429D01*
X33456380Y67280620D02*
X33456380Y68280620D01*
X33932571Y68280620D01*
X15248142Y68407620D02*
X15343380Y68407620D01*
X15438619Y68360000D01*
X15486238Y68312381D01*
X15533857Y68217143D01*
X15581476Y68026667D01*
X15581476Y67788572D01*
X15533857Y67598096D01*
X15486238Y67502858D01*
X15438619Y67455239D01*
X15343380Y67407620D01*
X15248142Y67407620D01*
X15152904Y67455239D01*
X15105285Y67502858D01*
X15057666Y67598096D01*
X15010047Y67788572D01*
X15010047Y68026667D01*
X15057666Y68217143D01*
X15105285Y68312381D01*
X15152904Y68360000D01*
X15248142Y68407620D01*
X16010047Y67502858D02*
X16057666Y67455239D01*
X16010047Y67407620D01*
X15962428Y67455239D01*
X16010047Y67502858D01*
X16010047Y67407620D01*
X17010047Y67407620D02*
X16438619Y67407620D01*
X16724333Y67407620D02*
X16724333Y68407620D01*
X16629095Y68264762D01*
X16533857Y68169524D01*
X16438619Y68121905D01*
X17867190Y68074286D02*
X17867190Y67407620D01*
X17438619Y68074286D02*
X17438619Y67550477D01*
X17486238Y67455239D01*
X17581476Y67407620D01*
X17724333Y67407620D01*
X17819571Y67455239D01*
X17867190Y67502858D01*
X18676714Y67931429D02*
X18343380Y67931429D01*
X18343380Y67407620D02*
X18343380Y68407620D01*
X18819571Y68407620D01*
X8072380Y87616905D02*
X7072380Y87616905D01*
X7786666Y87950239D01*
X7072380Y88283572D01*
X8072380Y88283572D01*
X7072380Y88664524D02*
X7072380Y89331191D01*
X8072380Y88664524D01*
X8072380Y89331191D01*
X7691428Y89712143D02*
X7691428Y90474048D01*
X7500952Y91093096D02*
X7453333Y90997858D01*
X7405714Y90950239D01*
X7310476Y90902620D01*
X7262857Y90902620D01*
X7167619Y90950239D01*
X7120000Y90997858D01*
X7072380Y91093096D01*
X7072380Y91283572D01*
X7120000Y91378810D01*
X7167619Y91426429D01*
X7262857Y91474048D01*
X7310476Y91474048D01*
X7405714Y91426429D01*
X7453333Y91378810D01*
X7500952Y91283572D01*
X7500952Y91093096D01*
X7548571Y90997858D01*
X7596190Y90950239D01*
X7691428Y90902620D01*
X7881904Y90902620D01*
X7977142Y90950239D01*
X8024761Y90997858D01*
X8072380Y91093096D01*
X8072380Y91283572D01*
X8024761Y91378810D01*
X7977142Y91426429D01*
X7881904Y91474048D01*
X7691428Y91474048D01*
X7596190Y91426429D01*
X7548571Y91378810D01*
X7500952Y91283572D01*
X7072380Y92093096D02*
X7072380Y92188334D01*
X7120000Y92283572D01*
X7167619Y92331191D01*
X7262857Y92378810D01*
X7453333Y92426429D01*
X7691428Y92426429D01*
X7881904Y92378810D01*
X7977142Y92331191D01*
X8024761Y92283572D01*
X8072380Y92188334D01*
X8072380Y92093096D01*
X8024761Y91997858D01*
X7977142Y91950239D01*
X7881904Y91902620D01*
X7691428Y91855000D01*
X7453333Y91855000D01*
X7262857Y91902620D01*
X7167619Y91950239D01*
X7120000Y91997858D01*
X7072380Y92093096D01*
X7548571Y93188334D02*
X7596190Y93331191D01*
X7643809Y93378810D01*
X7739047Y93426429D01*
X7881904Y93426429D01*
X7977142Y93378810D01*
X8024761Y93331191D01*
X8072380Y93235953D01*
X8072380Y92855000D01*
X7072380Y92855000D01*
X7072380Y93188334D01*
X7120000Y93283572D01*
X7167619Y93331191D01*
X7262857Y93378810D01*
X7358095Y93378810D01*
X7453333Y93331191D01*
X7500952Y93283572D01*
X7548571Y93188334D01*
X7548571Y92855000D01*
X8167619Y93616905D02*
X8167619Y94378810D01*
X8072380Y95140715D02*
X8072380Y94569286D01*
X8072380Y94855000D02*
X7072380Y94855000D01*
X7215238Y94759762D01*
X7310476Y94664524D01*
X7358095Y94569286D01*
X21042380Y78552143D02*
X21042380Y79218810D01*
X22042380Y78790239D01*
X21375714Y80028334D02*
X22042380Y80028334D01*
X20994761Y79790239D02*
X21709047Y79552143D01*
X21709047Y80171191D01*
X22042380Y81028334D02*
X22042380Y80552143D01*
X21042380Y80552143D01*
X21994761Y81314048D02*
X22042380Y81456905D01*
X22042380Y81695000D01*
X21994761Y81790239D01*
X21947142Y81837858D01*
X21851904Y81885477D01*
X21756666Y81885477D01*
X21661428Y81837858D01*
X21613809Y81790239D01*
X21566190Y81695000D01*
X21518571Y81504524D01*
X21470952Y81409286D01*
X21423333Y81361667D01*
X21328095Y81314048D01*
X21232857Y81314048D01*
X21137619Y81361667D01*
X21090000Y81409286D01*
X21042380Y81504524D01*
X21042380Y81742620D01*
X21090000Y81885477D01*
X22042380Y82361667D02*
X22042380Y82552143D01*
X21994761Y82647381D01*
X21947142Y82695000D01*
X21804285Y82790239D01*
X21613809Y82837858D01*
X21232857Y82837858D01*
X21137619Y82790239D01*
X21090000Y82742620D01*
X21042380Y82647381D01*
X21042380Y82456905D01*
X21090000Y82361667D01*
X21137619Y82314048D01*
X21232857Y82266429D01*
X21470952Y82266429D01*
X21566190Y82314048D01*
X21613809Y82361667D01*
X21661428Y82456905D01*
X21661428Y82647381D01*
X21613809Y82742620D01*
X21566190Y82790239D01*
X21470952Y82837858D01*
X21042380Y83171191D02*
X21042380Y83790239D01*
X21423333Y83456905D01*
X21423333Y83599762D01*
X21470952Y83695000D01*
X21518571Y83742620D01*
X21613809Y83790239D01*
X21851904Y83790239D01*
X21947142Y83742620D01*
X21994761Y83695000D01*
X22042380Y83599762D01*
X22042380Y83314048D01*
X21994761Y83218810D01*
X21947142Y83171191D01*
X14867142Y90632620D02*
X14962380Y90632620D01*
X15057619Y90585000D01*
X15105238Y90537381D01*
X15152857Y90442143D01*
X15200476Y90251667D01*
X15200476Y90013572D01*
X15152857Y89823096D01*
X15105238Y89727858D01*
X15057619Y89680239D01*
X14962380Y89632620D01*
X14867142Y89632620D01*
X14771904Y89680239D01*
X14724285Y89727858D01*
X14676666Y89823096D01*
X14629047Y90013572D01*
X14629047Y90251667D01*
X14676666Y90442143D01*
X14724285Y90537381D01*
X14771904Y90585000D01*
X14867142Y90632620D01*
X15629047Y89727858D02*
X15676666Y89680239D01*
X15629047Y89632620D01*
X15581428Y89680239D01*
X15629047Y89727858D01*
X15629047Y89632620D01*
X16629047Y89632620D02*
X16057619Y89632620D01*
X16343333Y89632620D02*
X16343333Y90632620D01*
X16248095Y90489762D01*
X16152857Y90394524D01*
X16057619Y90346905D01*
X17486190Y90299286D02*
X17486190Y89632620D01*
X17057619Y90299286D02*
X17057619Y89775477D01*
X17105238Y89680239D01*
X17200476Y89632620D01*
X17343333Y89632620D01*
X17438571Y89680239D01*
X17486190Y89727858D01*
X18295714Y90156429D02*
X17962380Y90156429D01*
X17962380Y89632620D02*
X17962380Y90632620D01*
X18438571Y90632620D01*
X30615142Y90632620D02*
X30710380Y90632620D01*
X30805619Y90585000D01*
X30853238Y90537381D01*
X30900857Y90442143D01*
X30948476Y90251667D01*
X30948476Y90013572D01*
X30900857Y89823096D01*
X30853238Y89727858D01*
X30805619Y89680239D01*
X30710380Y89632620D01*
X30615142Y89632620D01*
X30519904Y89680239D01*
X30472285Y89727858D01*
X30424666Y89823096D01*
X30377047Y90013572D01*
X30377047Y90251667D01*
X30424666Y90442143D01*
X30472285Y90537381D01*
X30519904Y90585000D01*
X30615142Y90632620D01*
X31377047Y89727858D02*
X31424666Y89680239D01*
X31377047Y89632620D01*
X31329428Y89680239D01*
X31377047Y89727858D01*
X31377047Y89632620D01*
X32377047Y89632620D02*
X31805619Y89632620D01*
X32091333Y89632620D02*
X32091333Y90632620D01*
X31996095Y90489762D01*
X31900857Y90394524D01*
X31805619Y90346905D01*
X33234190Y90299286D02*
X33234190Y89632620D01*
X32805619Y90299286D02*
X32805619Y89775477D01*
X32853238Y89680239D01*
X32948476Y89632620D01*
X33091333Y89632620D01*
X33186571Y89680239D01*
X33234190Y89727858D01*
X34043714Y90156429D02*
X33710380Y90156429D01*
X33710380Y89632620D02*
X33710380Y90632620D01*
X34186571Y90632620D01*
X45347142Y90632620D02*
X45442380Y90632620D01*
X45537619Y90585000D01*
X45585238Y90537381D01*
X45632857Y90442143D01*
X45680476Y90251667D01*
X45680476Y90013572D01*
X45632857Y89823096D01*
X45585238Y89727858D01*
X45537619Y89680239D01*
X45442380Y89632620D01*
X45347142Y89632620D01*
X45251904Y89680239D01*
X45204285Y89727858D01*
X45156666Y89823096D01*
X45109047Y90013572D01*
X45109047Y90251667D01*
X45156666Y90442143D01*
X45204285Y90537381D01*
X45251904Y90585000D01*
X45347142Y90632620D01*
X46109047Y89727858D02*
X46156666Y89680239D01*
X46109047Y89632620D01*
X46061428Y89680239D01*
X46109047Y89727858D01*
X46109047Y89632620D01*
X47109047Y89632620D02*
X46537619Y89632620D01*
X46823333Y89632620D02*
X46823333Y90632620D01*
X46728095Y90489762D01*
X46632857Y90394524D01*
X46537619Y90346905D01*
X47966190Y90299286D02*
X47966190Y89632620D01*
X47537619Y90299286D02*
X47537619Y89775477D01*
X47585238Y89680239D01*
X47680476Y89632620D01*
X47823333Y89632620D01*
X47918571Y89680239D01*
X47966190Y89727858D01*
X48775714Y90156429D02*
X48442380Y90156429D01*
X48442380Y89632620D02*
X48442380Y90632620D01*
X48918571Y90632620D01*
X36282380Y77917143D02*
X36282380Y78583810D01*
X37282380Y78155239D01*
X36615714Y79393334D02*
X37282380Y79393334D01*
X36234761Y79155239D02*
X36949047Y78917143D01*
X36949047Y79536191D01*
X37282380Y80393334D02*
X37282380Y79917143D01*
X36282380Y79917143D01*
X37234761Y80679048D02*
X37282380Y80821905D01*
X37282380Y81060000D01*
X37234761Y81155239D01*
X37187142Y81202858D01*
X37091904Y81250477D01*
X36996666Y81250477D01*
X36901428Y81202858D01*
X36853809Y81155239D01*
X36806190Y81060000D01*
X36758571Y80869524D01*
X36710952Y80774286D01*
X36663333Y80726667D01*
X36568095Y80679048D01*
X36472857Y80679048D01*
X36377619Y80726667D01*
X36330000Y80774286D01*
X36282380Y80869524D01*
X36282380Y81107620D01*
X36330000Y81250477D01*
X37282380Y81726667D02*
X37282380Y81917143D01*
X37234761Y82012381D01*
X37187142Y82060000D01*
X37044285Y82155239D01*
X36853809Y82202858D01*
X36472857Y82202858D01*
X36377619Y82155239D01*
X36330000Y82107620D01*
X36282380Y82012381D01*
X36282380Y81821905D01*
X36330000Y81726667D01*
X36377619Y81679048D01*
X36472857Y81631429D01*
X36710952Y81631429D01*
X36806190Y81679048D01*
X36853809Y81726667D01*
X36901428Y81821905D01*
X36901428Y82012381D01*
X36853809Y82107620D01*
X36806190Y82155239D01*
X36710952Y82202858D01*
X36282380Y82536191D02*
X36282380Y83155239D01*
X36663333Y82821905D01*
X36663333Y82964762D01*
X36710952Y83060000D01*
X36758571Y83107620D01*
X36853809Y83155239D01*
X37091904Y83155239D01*
X37187142Y83107620D01*
X37234761Y83060000D01*
X37282380Y82964762D01*
X37282380Y82679048D01*
X37234761Y82583810D01*
X37187142Y82536191D01*
X51522380Y79187143D02*
X51522380Y79853810D01*
X52522380Y79425239D01*
X51855714Y80663334D02*
X52522380Y80663334D01*
X51474761Y80425239D02*
X52189047Y80187143D01*
X52189047Y80806191D01*
X52522380Y81663334D02*
X52522380Y81187143D01*
X51522380Y81187143D01*
X52474761Y81949048D02*
X52522380Y82091905D01*
X52522380Y82330000D01*
X52474761Y82425239D01*
X52427142Y82472858D01*
X52331904Y82520477D01*
X52236666Y82520477D01*
X52141428Y82472858D01*
X52093809Y82425239D01*
X52046190Y82330000D01*
X51998571Y82139524D01*
X51950952Y82044286D01*
X51903333Y81996667D01*
X51808095Y81949048D01*
X51712857Y81949048D01*
X51617619Y81996667D01*
X51570000Y82044286D01*
X51522380Y82139524D01*
X51522380Y82377620D01*
X51570000Y82520477D01*
X52522380Y82996667D02*
X52522380Y83187143D01*
X52474761Y83282381D01*
X52427142Y83330000D01*
X52284285Y83425239D01*
X52093809Y83472858D01*
X51712857Y83472858D01*
X51617619Y83425239D01*
X51570000Y83377620D01*
X51522380Y83282381D01*
X51522380Y83091905D01*
X51570000Y82996667D01*
X51617619Y82949048D01*
X51712857Y82901429D01*
X51950952Y82901429D01*
X52046190Y82949048D01*
X52093809Y82996667D01*
X52141428Y83091905D01*
X52141428Y83282381D01*
X52093809Y83377620D01*
X52046190Y83425239D01*
X51950952Y83472858D01*
X51522380Y83806191D02*
X51522380Y84425239D01*
X51903333Y84091905D01*
X51903333Y84234762D01*
X51950952Y84330000D01*
X51998571Y84377620D01*
X52093809Y84425239D01*
X52331904Y84425239D01*
X52427142Y84377620D01*
X52474761Y84330000D01*
X52522380Y84234762D01*
X52522380Y83949048D01*
X52474761Y83853810D01*
X52427142Y83806191D01*
X60412380Y76377143D02*
X60412380Y76472381D01*
X60460000Y76567620D01*
X60507619Y76615239D01*
X60602857Y76662858D01*
X60793333Y76710477D01*
X61031428Y76710477D01*
X61221904Y76662858D01*
X61317142Y76615239D01*
X61364761Y76567620D01*
X61412380Y76472381D01*
X61412380Y76377143D01*
X61364761Y76281905D01*
X61317142Y76234286D01*
X61221904Y76186667D01*
X61031428Y76139048D01*
X60793333Y76139048D01*
X60602857Y76186667D01*
X60507619Y76234286D01*
X60460000Y76281905D01*
X60412380Y76377143D01*
X61317142Y77139048D02*
X61364761Y77186667D01*
X61412380Y77139048D01*
X61364761Y77091429D01*
X61317142Y77139048D01*
X61412380Y77139048D01*
X61412380Y78139048D02*
X61412380Y77567620D01*
X61412380Y77853334D02*
X60412380Y77853334D01*
X60555238Y77758096D01*
X60650476Y77662858D01*
X60698095Y77567620D01*
X60745714Y78996191D02*
X61412380Y78996191D01*
X60745714Y78567620D02*
X61269523Y78567620D01*
X61364761Y78615239D01*
X61412380Y78710477D01*
X61412380Y78853334D01*
X61364761Y78948572D01*
X61317142Y78996191D01*
X60888571Y79805715D02*
X60888571Y79472381D01*
X61412380Y79472381D02*
X60412380Y79472381D01*
X60412380Y79948572D01*
X87082380Y83766905D02*
X87082380Y83576429D01*
X87130000Y83481191D01*
X87177619Y83433572D01*
X87320476Y83338334D01*
X87510952Y83290715D01*
X87891904Y83290715D01*
X87987142Y83338334D01*
X88034761Y83385953D01*
X88082380Y83481191D01*
X88082380Y83671667D01*
X88034761Y83766905D01*
X87987142Y83814524D01*
X87891904Y83862143D01*
X87653809Y83862143D01*
X87558571Y83814524D01*
X87510952Y83766905D01*
X87463333Y83671667D01*
X87463333Y83481191D01*
X87510952Y83385953D01*
X87558571Y83338334D01*
X87653809Y83290715D01*
X87177619Y84243096D02*
X87130000Y84290715D01*
X87082380Y84385953D01*
X87082380Y84624048D01*
X87130000Y84719286D01*
X87177619Y84766905D01*
X87272857Y84814524D01*
X87368095Y84814524D01*
X87510952Y84766905D01*
X88082380Y84195477D01*
X88082380Y84814524D01*
X87082380Y85671667D02*
X87082380Y85481191D01*
X87130000Y85385953D01*
X87177619Y85338334D01*
X87320476Y85243096D01*
X87510952Y85195477D01*
X87891904Y85195477D01*
X87987142Y85243096D01*
X88034761Y85290715D01*
X88082380Y85385953D01*
X88082380Y85576429D01*
X88034761Y85671667D01*
X87987142Y85719286D01*
X87891904Y85766905D01*
X87653809Y85766905D01*
X87558571Y85719286D01*
X87510952Y85671667D01*
X87463333Y85576429D01*
X87463333Y85385953D01*
X87510952Y85290715D01*
X87558571Y85243096D01*
X87653809Y85195477D01*
X87415714Y86624048D02*
X88082380Y86624048D01*
X87034761Y86385953D02*
X87749047Y86147858D01*
X87749047Y86766905D01*
X89479380Y102673953D02*
X89479380Y102102524D01*
X89479380Y102388239D02*
X88479380Y102388239D01*
X88622238Y102293000D01*
X88717476Y102197762D01*
X88765095Y102102524D01*
X89479380Y103102524D02*
X88479380Y103102524D01*
X89098428Y103197762D02*
X89479380Y103483477D01*
X88812714Y103483477D02*
X89193666Y103102524D01*
X88447619Y110825953D02*
X88400000Y110873572D01*
X88352380Y110968810D01*
X88352380Y111206905D01*
X88400000Y111302143D01*
X88447619Y111349762D01*
X88542857Y111397381D01*
X88638095Y111397381D01*
X88780952Y111349762D01*
X89352380Y110778334D01*
X89352380Y111397381D01*
X88447619Y111778334D02*
X88400000Y111825953D01*
X88352380Y111921191D01*
X88352380Y112159286D01*
X88400000Y112254524D01*
X88447619Y112302143D01*
X88542857Y112349762D01*
X88638095Y112349762D01*
X88780952Y112302143D01*
X89352380Y111730715D01*
X89352380Y112349762D01*
X88352380Y112968810D02*
X88352380Y113064048D01*
X88400000Y113159286D01*
X88447619Y113206905D01*
X88542857Y113254524D01*
X88733333Y113302143D01*
X88971428Y113302143D01*
X89161904Y113254524D01*
X89257142Y113206905D01*
X89304761Y113159286D01*
X89352380Y113064048D01*
X89352380Y112968810D01*
X89304761Y112873572D01*
X89257142Y112825953D01*
X89161904Y112778334D01*
X88971428Y112730715D01*
X88733333Y112730715D01*
X88542857Y112778334D01*
X88447619Y112825953D01*
X88400000Y112873572D01*
X88352380Y112968810D01*
X88685714Y113730715D02*
X89685714Y113730715D01*
X88733333Y113730715D02*
X88685714Y113825953D01*
X88685714Y114016429D01*
X88733333Y114111667D01*
X88780952Y114159286D01*
X88876190Y114206905D01*
X89161904Y114206905D01*
X89257142Y114159286D01*
X89304761Y114111667D01*
X89352380Y114016429D01*
X89352380Y113825953D01*
X89304761Y113730715D01*
X88828571Y114968810D02*
X88828571Y114635477D01*
X89352380Y114635477D02*
X88352380Y114635477D01*
X88352380Y115111667D01*
X82002380Y106015953D02*
X82002380Y106682620D01*
X83002380Y106254048D01*
X82335714Y107492143D02*
X83002380Y107492143D01*
X81954761Y107254048D02*
X82669047Y107015953D01*
X82669047Y107635000D01*
X83002380Y108492143D02*
X83002380Y108015953D01*
X82002380Y108015953D01*
X82954761Y108777858D02*
X83002380Y108920715D01*
X83002380Y109158810D01*
X82954761Y109254048D01*
X82907142Y109301667D01*
X82811904Y109349286D01*
X82716666Y109349286D01*
X82621428Y109301667D01*
X82573809Y109254048D01*
X82526190Y109158810D01*
X82478571Y108968334D01*
X82430952Y108873096D01*
X82383333Y108825477D01*
X82288095Y108777858D01*
X82192857Y108777858D01*
X82097619Y108825477D01*
X82050000Y108873096D01*
X82002380Y108968334D01*
X82002380Y109206429D01*
X82050000Y109349286D01*
X83002380Y110301667D02*
X83002380Y109730239D01*
X83002380Y110015953D02*
X82002380Y110015953D01*
X82145238Y109920715D01*
X82240476Y109825477D01*
X82288095Y109730239D01*
X82002380Y110920715D02*
X82002380Y111015953D01*
X82050000Y111111191D01*
X82097619Y111158810D01*
X82192857Y111206429D01*
X82383333Y111254048D01*
X82621428Y111254048D01*
X82811904Y111206429D01*
X82907142Y111158810D01*
X82954761Y111111191D01*
X83002380Y111015953D01*
X83002380Y110920715D01*
X82954761Y110825477D01*
X82907142Y110777858D01*
X82811904Y110730239D01*
X82621428Y110682620D01*
X82383333Y110682620D01*
X82192857Y110730239D01*
X82097619Y110777858D01*
X82050000Y110825477D01*
X82002380Y110920715D01*
X82002380Y111587381D02*
X82002380Y112254048D01*
X83002380Y111825477D01*
X67397380Y109032143D02*
X67397380Y109698810D01*
X68397380Y109270239D01*
X67730714Y110508334D02*
X68397380Y110508334D01*
X67349761Y110270239D02*
X68064047Y110032143D01*
X68064047Y110651191D01*
X68397380Y111508334D02*
X68397380Y111032143D01*
X67397380Y111032143D01*
X68349761Y111794048D02*
X68397380Y111936905D01*
X68397380Y112175000D01*
X68349761Y112270239D01*
X68302142Y112317858D01*
X68206904Y112365477D01*
X68111666Y112365477D01*
X68016428Y112317858D01*
X67968809Y112270239D01*
X67921190Y112175000D01*
X67873571Y111984524D01*
X67825952Y111889286D01*
X67778333Y111841667D01*
X67683095Y111794048D01*
X67587857Y111794048D01*
X67492619Y111841667D01*
X67445000Y111889286D01*
X67397380Y111984524D01*
X67397380Y112222620D01*
X67445000Y112365477D01*
X67397380Y112984524D02*
X67397380Y113079762D01*
X67445000Y113175000D01*
X67492619Y113222620D01*
X67587857Y113270239D01*
X67778333Y113317858D01*
X68016428Y113317858D01*
X68206904Y113270239D01*
X68302142Y113222620D01*
X68349761Y113175000D01*
X68397380Y113079762D01*
X68397380Y112984524D01*
X68349761Y112889286D01*
X68302142Y112841667D01*
X68206904Y112794048D01*
X68016428Y112746429D01*
X67778333Y112746429D01*
X67587857Y112794048D01*
X67492619Y112841667D01*
X67445000Y112889286D01*
X67397380Y112984524D01*
X67730714Y114175000D02*
X68397380Y114175000D01*
X67349761Y113936905D02*
X68064047Y113698810D01*
X68064047Y114317858D01*
X60110714Y97967143D02*
X60777380Y97967143D01*
X59729761Y97729048D02*
X60444047Y97490953D01*
X60444047Y98110000D01*
X59777380Y98395715D02*
X59777380Y99062381D01*
X60777380Y98633810D01*
X59777380Y99633810D02*
X59777380Y99729048D01*
X59825000Y99824286D01*
X59872619Y99871905D01*
X59967857Y99919524D01*
X60158333Y99967143D01*
X60396428Y99967143D01*
X60586904Y99919524D01*
X60682142Y99871905D01*
X60729761Y99824286D01*
X60777380Y99729048D01*
X60777380Y99633810D01*
X60729761Y99538572D01*
X60682142Y99490953D01*
X60586904Y99443334D01*
X60396428Y99395715D01*
X60158333Y99395715D01*
X59967857Y99443334D01*
X59872619Y99490953D01*
X59825000Y99538572D01*
X59777380Y99633810D01*
X60110714Y100395715D02*
X61110714Y100395715D01*
X60158333Y100395715D02*
X60110714Y100490953D01*
X60110714Y100681429D01*
X60158333Y100776667D01*
X60205952Y100824286D01*
X60301190Y100871905D01*
X60586904Y100871905D01*
X60682142Y100824286D01*
X60729761Y100776667D01*
X60777380Y100681429D01*
X60777380Y100490953D01*
X60729761Y100395715D01*
X60253571Y101633810D02*
X60253571Y101300477D01*
X60777380Y101300477D02*
X59777380Y101300477D01*
X59777380Y101776667D01*
X51522380Y103475953D02*
X51522380Y104142620D01*
X52522380Y103714048D01*
X51855714Y104952143D02*
X52522380Y104952143D01*
X51474761Y104714048D02*
X52189047Y104475953D01*
X52189047Y105095000D01*
X52522380Y105952143D02*
X52522380Y105475953D01*
X51522380Y105475953D01*
X52474761Y106237858D02*
X52522380Y106380715D01*
X52522380Y106618810D01*
X52474761Y106714048D01*
X52427142Y106761667D01*
X52331904Y106809286D01*
X52236666Y106809286D01*
X52141428Y106761667D01*
X52093809Y106714048D01*
X52046190Y106618810D01*
X51998571Y106428334D01*
X51950952Y106333096D01*
X51903333Y106285477D01*
X51808095Y106237858D01*
X51712857Y106237858D01*
X51617619Y106285477D01*
X51570000Y106333096D01*
X51522380Y106428334D01*
X51522380Y106666429D01*
X51570000Y106809286D01*
X52522380Y107761667D02*
X52522380Y107190239D01*
X52522380Y107475953D02*
X51522380Y107475953D01*
X51665238Y107380715D01*
X51760476Y107285477D01*
X51808095Y107190239D01*
X51522380Y108095000D02*
X51522380Y108761667D01*
X52522380Y108333096D01*
X51522380Y109618810D02*
X51522380Y109142620D01*
X51998571Y109095000D01*
X51950952Y109142620D01*
X51903333Y109237858D01*
X51903333Y109475953D01*
X51950952Y109571191D01*
X51998571Y109618810D01*
X52093809Y109666429D01*
X52331904Y109666429D01*
X52427142Y109618810D01*
X52474761Y109571191D01*
X52522380Y109475953D01*
X52522380Y109237858D01*
X52474761Y109142620D01*
X52427142Y109095000D01*
X36282380Y107285953D02*
X36282380Y107952620D01*
X37282380Y107524048D01*
X36615714Y108762143D02*
X37282380Y108762143D01*
X36234761Y108524048D02*
X36949047Y108285953D01*
X36949047Y108905000D01*
X37282380Y109762143D02*
X37282380Y109285953D01*
X36282380Y109285953D01*
X37234761Y110047858D02*
X37282380Y110190715D01*
X37282380Y110428810D01*
X37234761Y110524048D01*
X37187142Y110571667D01*
X37091904Y110619286D01*
X36996666Y110619286D01*
X36901428Y110571667D01*
X36853809Y110524048D01*
X36806190Y110428810D01*
X36758571Y110238334D01*
X36710952Y110143096D01*
X36663333Y110095477D01*
X36568095Y110047858D01*
X36472857Y110047858D01*
X36377619Y110095477D01*
X36330000Y110143096D01*
X36282380Y110238334D01*
X36282380Y110476429D01*
X36330000Y110619286D01*
X37282380Y111571667D02*
X37282380Y111000239D01*
X37282380Y111285953D02*
X36282380Y111285953D01*
X36425238Y111190715D01*
X36520476Y111095477D01*
X36568095Y111000239D01*
X36282380Y112428810D02*
X36282380Y112238334D01*
X36330000Y112143096D01*
X36377619Y112095477D01*
X36520476Y112000239D01*
X36710952Y111952620D01*
X37091904Y111952620D01*
X37187142Y112000239D01*
X37234761Y112047858D01*
X37282380Y112143096D01*
X37282380Y112333572D01*
X37234761Y112428810D01*
X37187142Y112476429D01*
X37091904Y112524048D01*
X36853809Y112524048D01*
X36758571Y112476429D01*
X36710952Y112428810D01*
X36663333Y112333572D01*
X36663333Y112143096D01*
X36710952Y112047858D01*
X36758571Y112000239D01*
X36853809Y111952620D01*
X36282380Y113428810D02*
X36282380Y112952620D01*
X36758571Y112905000D01*
X36710952Y112952620D01*
X36663333Y113047858D01*
X36663333Y113285953D01*
X36710952Y113381191D01*
X36758571Y113428810D01*
X36853809Y113476429D01*
X37091904Y113476429D01*
X37187142Y113428810D01*
X37234761Y113381191D01*
X37282380Y113285953D01*
X37282380Y113047858D01*
X37234761Y112952620D01*
X37187142Y112905000D01*
X76462142Y117937620D02*
X76557380Y117937620D01*
X76652619Y117890000D01*
X76700238Y117842381D01*
X76747857Y117747143D01*
X76795476Y117556667D01*
X76795476Y117318572D01*
X76747857Y117128096D01*
X76700238Y117032858D01*
X76652619Y116985239D01*
X76557380Y116937620D01*
X76462142Y116937620D01*
X76366904Y116985239D01*
X76319285Y117032858D01*
X76271666Y117128096D01*
X76224047Y117318572D01*
X76224047Y117556667D01*
X76271666Y117747143D01*
X76319285Y117842381D01*
X76366904Y117890000D01*
X76462142Y117937620D01*
X77224047Y117032858D02*
X77271666Y116985239D01*
X77224047Y116937620D01*
X77176428Y116985239D01*
X77224047Y117032858D01*
X77224047Y116937620D01*
X78224047Y116937620D02*
X77652619Y116937620D01*
X77938333Y116937620D02*
X77938333Y117937620D01*
X77843095Y117794762D01*
X77747857Y117699524D01*
X77652619Y117651905D01*
X79081190Y117604286D02*
X79081190Y116937620D01*
X78652619Y117604286D02*
X78652619Y117080477D01*
X78700238Y116985239D01*
X78795476Y116937620D01*
X78938333Y116937620D01*
X79033571Y116985239D01*
X79081190Y117032858D01*
X79890714Y117461429D02*
X79557380Y117461429D01*
X79557380Y116937620D02*
X79557380Y117937620D01*
X80033571Y117937620D01*
X82430952Y123160620D02*
X81859523Y123160620D01*
X82145238Y123160620D02*
X82145238Y124160620D01*
X82050000Y124017762D01*
X81954761Y123922524D01*
X81859523Y123874905D01*
X82859523Y123160620D02*
X82859523Y124160620D01*
X82954761Y123541572D02*
X83240476Y123160620D01*
X83240476Y123827286D02*
X82859523Y123446334D01*
X61857142Y120477620D02*
X61952380Y120477620D01*
X62047619Y120430000D01*
X62095238Y120382381D01*
X62142857Y120287143D01*
X62190476Y120096667D01*
X62190476Y119858572D01*
X62142857Y119668096D01*
X62095238Y119572858D01*
X62047619Y119525239D01*
X61952380Y119477620D01*
X61857142Y119477620D01*
X61761904Y119525239D01*
X61714285Y119572858D01*
X61666666Y119668096D01*
X61619047Y119858572D01*
X61619047Y120096667D01*
X61666666Y120287143D01*
X61714285Y120382381D01*
X61761904Y120430000D01*
X61857142Y120477620D01*
X62619047Y119572858D02*
X62666666Y119525239D01*
X62619047Y119477620D01*
X62571428Y119525239D01*
X62619047Y119572858D01*
X62619047Y119477620D01*
X63619047Y119477620D02*
X63047619Y119477620D01*
X63333333Y119477620D02*
X63333333Y120477620D01*
X63238095Y120334762D01*
X63142857Y120239524D01*
X63047619Y120191905D01*
X64476190Y120144286D02*
X64476190Y119477620D01*
X64047619Y120144286D02*
X64047619Y119620477D01*
X64095238Y119525239D01*
X64190476Y119477620D01*
X64333333Y119477620D01*
X64428571Y119525239D01*
X64476190Y119572858D01*
X65285714Y120001429D02*
X64952380Y120001429D01*
X64952380Y119477620D02*
X64952380Y120477620D01*
X65428571Y120477620D01*
X45600952Y119477620D02*
X45029523Y119477620D01*
X45315238Y119477620D02*
X45315238Y120477620D01*
X45220000Y120334762D01*
X45124761Y120239524D01*
X45029523Y120191905D01*
X46029523Y119477620D02*
X46029523Y120477620D01*
X46124761Y119858572D02*
X46410476Y119477620D01*
X46410476Y120144286D02*
X46029523Y119763334D01*
X30107142Y120477620D02*
X30202380Y120477620D01*
X30297619Y120430000D01*
X30345238Y120382381D01*
X30392857Y120287143D01*
X30440476Y120096667D01*
X30440476Y119858572D01*
X30392857Y119668096D01*
X30345238Y119572858D01*
X30297619Y119525239D01*
X30202380Y119477620D01*
X30107142Y119477620D01*
X30011904Y119525239D01*
X29964285Y119572858D01*
X29916666Y119668096D01*
X29869047Y119858572D01*
X29869047Y120096667D01*
X29916666Y120287143D01*
X29964285Y120382381D01*
X30011904Y120430000D01*
X30107142Y120477620D01*
X30869047Y119572858D02*
X30916666Y119525239D01*
X30869047Y119477620D01*
X30821428Y119525239D01*
X30869047Y119572858D01*
X30869047Y119477620D01*
X31869047Y119477620D02*
X31297619Y119477620D01*
X31583333Y119477620D02*
X31583333Y120477620D01*
X31488095Y120334762D01*
X31392857Y120239524D01*
X31297619Y120191905D01*
X32726190Y120144286D02*
X32726190Y119477620D01*
X32297619Y120144286D02*
X32297619Y119620477D01*
X32345238Y119525239D01*
X32440476Y119477620D01*
X32583333Y119477620D01*
X32678571Y119525239D01*
X32726190Y119572858D01*
X33535714Y120001429D02*
X33202380Y120001429D01*
X33202380Y119477620D02*
X33202380Y120477620D01*
X33678571Y120477620D01*
X14232142Y121112620D02*
X14327380Y121112620D01*
X14422619Y121065000D01*
X14470238Y121017381D01*
X14517857Y120922143D01*
X14565476Y120731667D01*
X14565476Y120493572D01*
X14517857Y120303096D01*
X14470238Y120207858D01*
X14422619Y120160239D01*
X14327380Y120112620D01*
X14232142Y120112620D01*
X14136904Y120160239D01*
X14089285Y120207858D01*
X14041666Y120303096D01*
X13994047Y120493572D01*
X13994047Y120731667D01*
X14041666Y120922143D01*
X14089285Y121017381D01*
X14136904Y121065000D01*
X14232142Y121112620D01*
X14994047Y120207858D02*
X15041666Y120160239D01*
X14994047Y120112620D01*
X14946428Y120160239D01*
X14994047Y120207858D01*
X14994047Y120112620D01*
X15994047Y120112620D02*
X15422619Y120112620D01*
X15708333Y120112620D02*
X15708333Y121112620D01*
X15613095Y120969762D01*
X15517857Y120874524D01*
X15422619Y120826905D01*
X16851190Y120779286D02*
X16851190Y120112620D01*
X16422619Y120779286D02*
X16422619Y120255477D01*
X16470238Y120160239D01*
X16565476Y120112620D01*
X16708333Y120112620D01*
X16803571Y120160239D01*
X16851190Y120207858D01*
X17660714Y120636429D02*
X17327380Y120636429D01*
X17327380Y120112620D02*
X17327380Y121112620D01*
X17803571Y121112620D01*
X20407380Y106650953D02*
X20407380Y107317620D01*
X21407380Y106889048D01*
X20740714Y108127143D02*
X21407380Y108127143D01*
X20359761Y107889048D02*
X21074047Y107650953D01*
X21074047Y108270000D01*
X21407380Y109127143D02*
X21407380Y108650953D01*
X20407380Y108650953D01*
X21359761Y109412858D02*
X21407380Y109555715D01*
X21407380Y109793810D01*
X21359761Y109889048D01*
X21312142Y109936667D01*
X21216904Y109984286D01*
X21121666Y109984286D01*
X21026428Y109936667D01*
X20978809Y109889048D01*
X20931190Y109793810D01*
X20883571Y109603334D01*
X20835952Y109508096D01*
X20788333Y109460477D01*
X20693095Y109412858D01*
X20597857Y109412858D01*
X20502619Y109460477D01*
X20455000Y109508096D01*
X20407380Y109603334D01*
X20407380Y109841429D01*
X20455000Y109984286D01*
X20502619Y110365239D02*
X20455000Y110412858D01*
X20407380Y110508096D01*
X20407380Y110746191D01*
X20455000Y110841429D01*
X20502619Y110889048D01*
X20597857Y110936667D01*
X20693095Y110936667D01*
X20835952Y110889048D01*
X21407380Y110317620D01*
X21407380Y110936667D01*
X20740714Y111793810D02*
X21407380Y111793810D01*
X20359761Y111555715D02*
X21074047Y111317620D01*
X21074047Y111936667D01*
X20407380Y112793810D02*
X20407380Y112317620D01*
X20883571Y112270000D01*
X20835952Y112317620D01*
X20788333Y112412858D01*
X20788333Y112650953D01*
X20835952Y112746191D01*
X20883571Y112793810D01*
X20978809Y112841429D01*
X21216904Y112841429D01*
X21312142Y112793810D01*
X21359761Y112746191D01*
X21407380Y112650953D01*
X21407380Y112412858D01*
X21359761Y112317620D01*
X21312142Y112270000D01*
X10358380Y121017905D02*
X9358380Y121017905D01*
X10072666Y121351239D01*
X9358380Y121684572D01*
X10358380Y121684572D01*
X9358380Y122065524D02*
X9358380Y122732191D01*
X10358380Y122065524D01*
X10358380Y122732191D01*
X9977428Y123113143D02*
X9977428Y123875048D01*
X9786952Y124494096D02*
X9739333Y124398858D01*
X9691714Y124351239D01*
X9596476Y124303620D01*
X9548857Y124303620D01*
X9453619Y124351239D01*
X9406000Y124398858D01*
X9358380Y124494096D01*
X9358380Y124684572D01*
X9406000Y124779810D01*
X9453619Y124827429D01*
X9548857Y124875048D01*
X9596476Y124875048D01*
X9691714Y124827429D01*
X9739333Y124779810D01*
X9786952Y124684572D01*
X9786952Y124494096D01*
X9834571Y124398858D01*
X9882190Y124351239D01*
X9977428Y124303620D01*
X10167904Y124303620D01*
X10263142Y124351239D01*
X10310761Y124398858D01*
X10358380Y124494096D01*
X10358380Y124684572D01*
X10310761Y124779810D01*
X10263142Y124827429D01*
X10167904Y124875048D01*
X9977428Y124875048D01*
X9882190Y124827429D01*
X9834571Y124779810D01*
X9786952Y124684572D01*
X9358380Y125494096D02*
X9358380Y125589334D01*
X9406000Y125684572D01*
X9453619Y125732191D01*
X9548857Y125779810D01*
X9739333Y125827429D01*
X9977428Y125827429D01*
X10167904Y125779810D01*
X10263142Y125732191D01*
X10310761Y125684572D01*
X10358380Y125589334D01*
X10358380Y125494096D01*
X10310761Y125398858D01*
X10263142Y125351239D01*
X10167904Y125303620D01*
X9977428Y125256000D01*
X9739333Y125256000D01*
X9548857Y125303620D01*
X9453619Y125351239D01*
X9406000Y125398858D01*
X9358380Y125494096D01*
X9834571Y126589334D02*
X9882190Y126732191D01*
X9929809Y126779810D01*
X10025047Y126827429D01*
X10167904Y126827429D01*
X10263142Y126779810D01*
X10310761Y126732191D01*
X10358380Y126636953D01*
X10358380Y126256000D01*
X9358380Y126256000D01*
X9358380Y126589334D01*
X9406000Y126684572D01*
X9453619Y126732191D01*
X9548857Y126779810D01*
X9644095Y126779810D01*
X9739333Y126732191D01*
X9786952Y126684572D01*
X9834571Y126589334D01*
X9834571Y126256000D01*
X10453619Y127017905D02*
X10453619Y127779810D01*
X9453619Y127970286D02*
X9406000Y128017905D01*
X9358380Y128113143D01*
X9358380Y128351239D01*
X9406000Y128446477D01*
X9453619Y128494096D01*
X9548857Y128541715D01*
X9644095Y128541715D01*
X9786952Y128494096D01*
X10358380Y127922667D01*
X10358380Y128541715D01*
X14200380Y152709620D02*
X13628952Y152709620D01*
X13914666Y152709620D02*
X13914666Y153709620D01*
X13819428Y153566762D01*
X13724190Y153471524D01*
X13628952Y153423905D01*
X14819428Y153709620D02*
X14914666Y153709620D01*
X15009904Y153662000D01*
X15057523Y153614381D01*
X15105142Y153519143D01*
X15152761Y153328667D01*
X15152761Y153090572D01*
X15105142Y152900096D01*
X15057523Y152804858D01*
X15009904Y152757239D01*
X14914666Y152709620D01*
X14819428Y152709620D01*
X14724190Y152757239D01*
X14676571Y152804858D01*
X14628952Y152900096D01*
X14581333Y153090572D01*
X14581333Y153328667D01*
X14628952Y153519143D01*
X14676571Y153614381D01*
X14724190Y153662000D01*
X14819428Y153709620D01*
X15771809Y153709620D02*
X15867047Y153709620D01*
X15962285Y153662000D01*
X16009904Y153614381D01*
X16057523Y153519143D01*
X16105142Y153328667D01*
X16105142Y153090572D01*
X16057523Y152900096D01*
X16009904Y152804858D01*
X15962285Y152757239D01*
X15867047Y152709620D01*
X15771809Y152709620D01*
X15676571Y152757239D01*
X15628952Y152804858D01*
X15581333Y152900096D01*
X15533714Y153090572D01*
X15533714Y153328667D01*
X15581333Y153519143D01*
X15628952Y153614381D01*
X15676571Y153662000D01*
X15771809Y153709620D01*
X16962285Y153376286D02*
X16962285Y152709620D01*
X16533714Y153376286D02*
X16533714Y152852477D01*
X16581333Y152757239D01*
X16676571Y152709620D01*
X16819428Y152709620D01*
X16914666Y152757239D01*
X16962285Y152804858D01*
X17771809Y153233429D02*
X17438476Y153233429D01*
X17438476Y152709620D02*
X17438476Y153709620D01*
X17914666Y153709620D01*
X13597142Y143337620D02*
X13692380Y143337620D01*
X13787619Y143290000D01*
X13835238Y143242381D01*
X13882857Y143147143D01*
X13930476Y142956667D01*
X13930476Y142718572D01*
X13882857Y142528096D01*
X13835238Y142432858D01*
X13787619Y142385239D01*
X13692380Y142337620D01*
X13597142Y142337620D01*
X13501904Y142385239D01*
X13454285Y142432858D01*
X13406666Y142528096D01*
X13359047Y142718572D01*
X13359047Y142956667D01*
X13406666Y143147143D01*
X13454285Y143242381D01*
X13501904Y143290000D01*
X13597142Y143337620D01*
X14359047Y142432858D02*
X14406666Y142385239D01*
X14359047Y142337620D01*
X14311428Y142385239D01*
X14359047Y142432858D01*
X14359047Y142337620D01*
X15359047Y142337620D02*
X14787619Y142337620D01*
X15073333Y142337620D02*
X15073333Y143337620D01*
X14978095Y143194762D01*
X14882857Y143099524D01*
X14787619Y143051905D01*
X16216190Y143004286D02*
X16216190Y142337620D01*
X15787619Y143004286D02*
X15787619Y142480477D01*
X15835238Y142385239D01*
X15930476Y142337620D01*
X16073333Y142337620D01*
X16168571Y142385239D01*
X16216190Y142432858D01*
X17025714Y142861429D02*
X16692380Y142861429D01*
X16692380Y142337620D02*
X16692380Y143337620D01*
X17168571Y143337620D01*
X20407380Y131892143D02*
X20407380Y132558810D01*
X21407380Y132130239D01*
X20740714Y133368334D02*
X21407380Y133368334D01*
X20359761Y133130239D02*
X21074047Y132892143D01*
X21074047Y133511191D01*
X21407380Y134368334D02*
X21407380Y133892143D01*
X20407380Y133892143D01*
X21359761Y134654048D02*
X21407380Y134796905D01*
X21407380Y135035000D01*
X21359761Y135130239D01*
X21312142Y135177858D01*
X21216904Y135225477D01*
X21121666Y135225477D01*
X21026428Y135177858D01*
X20978809Y135130239D01*
X20931190Y135035000D01*
X20883571Y134844524D01*
X20835952Y134749286D01*
X20788333Y134701667D01*
X20693095Y134654048D01*
X20597857Y134654048D01*
X20502619Y134701667D01*
X20455000Y134749286D01*
X20407380Y134844524D01*
X20407380Y135082620D01*
X20455000Y135225477D01*
X20407380Y135558810D02*
X20407380Y136177858D01*
X20788333Y135844524D01*
X20788333Y135987381D01*
X20835952Y136082620D01*
X20883571Y136130239D01*
X20978809Y136177858D01*
X21216904Y136177858D01*
X21312142Y136130239D01*
X21359761Y136082620D01*
X21407380Y135987381D01*
X21407380Y135701667D01*
X21359761Y135606429D01*
X21312142Y135558810D01*
X20502619Y136558810D02*
X20455000Y136606429D01*
X20407380Y136701667D01*
X20407380Y136939762D01*
X20455000Y137035000D01*
X20502619Y137082620D01*
X20597857Y137130239D01*
X20693095Y137130239D01*
X20835952Y137082620D01*
X21407380Y136511191D01*
X21407380Y137130239D01*
X30107142Y143337620D02*
X30202380Y143337620D01*
X30297619Y143290000D01*
X30345238Y143242381D01*
X30392857Y143147143D01*
X30440476Y142956667D01*
X30440476Y142718572D01*
X30392857Y142528096D01*
X30345238Y142432858D01*
X30297619Y142385239D01*
X30202380Y142337620D01*
X30107142Y142337620D01*
X30011904Y142385239D01*
X29964285Y142432858D01*
X29916666Y142528096D01*
X29869047Y142718572D01*
X29869047Y142956667D01*
X29916666Y143147143D01*
X29964285Y143242381D01*
X30011904Y143290000D01*
X30107142Y143337620D01*
X30869047Y142432858D02*
X30916666Y142385239D01*
X30869047Y142337620D01*
X30821428Y142385239D01*
X30869047Y142432858D01*
X30869047Y142337620D01*
X31869047Y142337620D02*
X31297619Y142337620D01*
X31583333Y142337620D02*
X31583333Y143337620D01*
X31488095Y143194762D01*
X31392857Y143099524D01*
X31297619Y143051905D01*
X32726190Y143004286D02*
X32726190Y142337620D01*
X32297619Y143004286D02*
X32297619Y142480477D01*
X32345238Y142385239D01*
X32440476Y142337620D01*
X32583333Y142337620D01*
X32678571Y142385239D01*
X32726190Y142432858D01*
X33535714Y142861429D02*
X33202380Y142861429D01*
X33202380Y142337620D02*
X33202380Y143337620D01*
X33678571Y143337620D01*
X36282380Y130622143D02*
X36282380Y131288810D01*
X37282380Y130860239D01*
X36615714Y132098334D02*
X37282380Y132098334D01*
X36234761Y131860239D02*
X36949047Y131622143D01*
X36949047Y132241191D01*
X37282380Y133098334D02*
X37282380Y132622143D01*
X36282380Y132622143D01*
X37234761Y133384048D02*
X37282380Y133526905D01*
X37282380Y133765000D01*
X37234761Y133860239D01*
X37187142Y133907858D01*
X37091904Y133955477D01*
X36996666Y133955477D01*
X36901428Y133907858D01*
X36853809Y133860239D01*
X36806190Y133765000D01*
X36758571Y133574524D01*
X36710952Y133479286D01*
X36663333Y133431667D01*
X36568095Y133384048D01*
X36472857Y133384048D01*
X36377619Y133431667D01*
X36330000Y133479286D01*
X36282380Y133574524D01*
X36282380Y133812620D01*
X36330000Y133955477D01*
X36282380Y134574524D02*
X36282380Y134669762D01*
X36330000Y134765000D01*
X36377619Y134812620D01*
X36472857Y134860239D01*
X36663333Y134907858D01*
X36901428Y134907858D01*
X37091904Y134860239D01*
X37187142Y134812620D01*
X37234761Y134765000D01*
X37282380Y134669762D01*
X37282380Y134574524D01*
X37234761Y134479286D01*
X37187142Y134431667D01*
X37091904Y134384048D01*
X36901428Y134336429D01*
X36663333Y134336429D01*
X36472857Y134384048D01*
X36377619Y134431667D01*
X36330000Y134479286D01*
X36282380Y134574524D01*
X36710952Y135479286D02*
X36663333Y135384048D01*
X36615714Y135336429D01*
X36520476Y135288810D01*
X36472857Y135288810D01*
X36377619Y135336429D01*
X36330000Y135384048D01*
X36282380Y135479286D01*
X36282380Y135669762D01*
X36330000Y135765000D01*
X36377619Y135812620D01*
X36472857Y135860239D01*
X36520476Y135860239D01*
X36615714Y135812620D01*
X36663333Y135765000D01*
X36710952Y135669762D01*
X36710952Y135479286D01*
X36758571Y135384048D01*
X36806190Y135336429D01*
X36901428Y135288810D01*
X37091904Y135288810D01*
X37187142Y135336429D01*
X37234761Y135384048D01*
X37282380Y135479286D01*
X37282380Y135669762D01*
X37234761Y135765000D01*
X37187142Y135812620D01*
X37091904Y135860239D01*
X36901428Y135860239D01*
X36806190Y135812620D01*
X36758571Y135765000D01*
X36710952Y135669762D01*
X54062380Y132527143D02*
X54062380Y133193810D01*
X55062380Y132765239D01*
X54395714Y134003334D02*
X55062380Y134003334D01*
X54014761Y133765239D02*
X54729047Y133527143D01*
X54729047Y134146191D01*
X55062380Y135003334D02*
X55062380Y134527143D01*
X54062380Y134527143D01*
X55014761Y135289048D02*
X55062380Y135431905D01*
X55062380Y135670000D01*
X55014761Y135765239D01*
X54967142Y135812858D01*
X54871904Y135860477D01*
X54776666Y135860477D01*
X54681428Y135812858D01*
X54633809Y135765239D01*
X54586190Y135670000D01*
X54538571Y135479524D01*
X54490952Y135384286D01*
X54443333Y135336667D01*
X54348095Y135289048D01*
X54252857Y135289048D01*
X54157619Y135336667D01*
X54110000Y135384286D01*
X54062380Y135479524D01*
X54062380Y135717620D01*
X54110000Y135860477D01*
X54062380Y136193810D02*
X54062380Y136812858D01*
X54443333Y136479524D01*
X54443333Y136622381D01*
X54490952Y136717620D01*
X54538571Y136765239D01*
X54633809Y136812858D01*
X54871904Y136812858D01*
X54967142Y136765239D01*
X55014761Y136717620D01*
X55062380Y136622381D01*
X55062380Y136336667D01*
X55014761Y136241429D01*
X54967142Y136193810D01*
X54157619Y137193810D02*
X54110000Y137241429D01*
X54062380Y137336667D01*
X54062380Y137574762D01*
X54110000Y137670000D01*
X54157619Y137717620D01*
X54252857Y137765239D01*
X54348095Y137765239D01*
X54490952Y137717620D01*
X55062380Y137146191D01*
X55062380Y137765239D01*
X48268142Y143337620D02*
X48363380Y143337620D01*
X48458619Y143290000D01*
X48506238Y143242381D01*
X48553857Y143147143D01*
X48601476Y142956667D01*
X48601476Y142718572D01*
X48553857Y142528096D01*
X48506238Y142432858D01*
X48458619Y142385239D01*
X48363380Y142337620D01*
X48268142Y142337620D01*
X48172904Y142385239D01*
X48125285Y142432858D01*
X48077666Y142528096D01*
X48030047Y142718572D01*
X48030047Y142956667D01*
X48077666Y143147143D01*
X48125285Y143242381D01*
X48172904Y143290000D01*
X48268142Y143337620D01*
X49030047Y142432858D02*
X49077666Y142385239D01*
X49030047Y142337620D01*
X48982428Y142385239D01*
X49030047Y142432858D01*
X49030047Y142337620D01*
X50030047Y142337620D02*
X49458619Y142337620D01*
X49744333Y142337620D02*
X49744333Y143337620D01*
X49649095Y143194762D01*
X49553857Y143099524D01*
X49458619Y143051905D01*
X50887190Y143004286D02*
X50887190Y142337620D01*
X50458619Y143004286D02*
X50458619Y142480477D01*
X50506238Y142385239D01*
X50601476Y142337620D01*
X50744333Y142337620D01*
X50839571Y142385239D01*
X50887190Y142432858D01*
X51696714Y142861429D02*
X51363380Y142861429D01*
X51363380Y142337620D02*
X51363380Y143337620D01*
X51839571Y143337620D01*
X64397142Y143337620D02*
X64492380Y143337620D01*
X64587619Y143290000D01*
X64635238Y143242381D01*
X64682857Y143147143D01*
X64730476Y142956667D01*
X64730476Y142718572D01*
X64682857Y142528096D01*
X64635238Y142432858D01*
X64587619Y142385239D01*
X64492380Y142337620D01*
X64397142Y142337620D01*
X64301904Y142385239D01*
X64254285Y142432858D01*
X64206666Y142528096D01*
X64159047Y142718572D01*
X64159047Y142956667D01*
X64206666Y143147143D01*
X64254285Y143242381D01*
X64301904Y143290000D01*
X64397142Y143337620D01*
X65159047Y142432858D02*
X65206666Y142385239D01*
X65159047Y142337620D01*
X65111428Y142385239D01*
X65159047Y142432858D01*
X65159047Y142337620D01*
X66159047Y142337620D02*
X65587619Y142337620D01*
X65873333Y142337620D02*
X65873333Y143337620D01*
X65778095Y143194762D01*
X65682857Y143099524D01*
X65587619Y143051905D01*
X67016190Y143004286D02*
X67016190Y142337620D01*
X66587619Y143004286D02*
X66587619Y142480477D01*
X66635238Y142385239D01*
X66730476Y142337620D01*
X66873333Y142337620D01*
X66968571Y142385239D01*
X67016190Y142432858D01*
X67825714Y142861429D02*
X67492380Y142861429D01*
X67492380Y142337620D02*
X67492380Y143337620D01*
X67968571Y143337620D01*
X70572380Y131257143D02*
X70572380Y131923810D01*
X71572380Y131495239D01*
X70905714Y132733334D02*
X71572380Y132733334D01*
X70524761Y132495239D02*
X71239047Y132257143D01*
X71239047Y132876191D01*
X71572380Y133733334D02*
X71572380Y133257143D01*
X70572380Y133257143D01*
X71524761Y134019048D02*
X71572380Y134161905D01*
X71572380Y134400000D01*
X71524761Y134495239D01*
X71477142Y134542858D01*
X71381904Y134590477D01*
X71286666Y134590477D01*
X71191428Y134542858D01*
X71143809Y134495239D01*
X71096190Y134400000D01*
X71048571Y134209524D01*
X71000952Y134114286D01*
X70953333Y134066667D01*
X70858095Y134019048D01*
X70762857Y134019048D01*
X70667619Y134066667D01*
X70620000Y134114286D01*
X70572380Y134209524D01*
X70572380Y134447620D01*
X70620000Y134590477D01*
X70572380Y135209524D02*
X70572380Y135304762D01*
X70620000Y135400000D01*
X70667619Y135447620D01*
X70762857Y135495239D01*
X70953333Y135542858D01*
X71191428Y135542858D01*
X71381904Y135495239D01*
X71477142Y135447620D01*
X71524761Y135400000D01*
X71572380Y135304762D01*
X71572380Y135209524D01*
X71524761Y135114286D01*
X71477142Y135066667D01*
X71381904Y135019048D01*
X71191428Y134971429D01*
X70953333Y134971429D01*
X70762857Y135019048D01*
X70667619Y135066667D01*
X70620000Y135114286D01*
X70572380Y135209524D01*
X70572380Y136161905D02*
X70572380Y136257143D01*
X70620000Y136352381D01*
X70667619Y136400000D01*
X70762857Y136447620D01*
X70953333Y136495239D01*
X71191428Y136495239D01*
X71381904Y136447620D01*
X71477142Y136400000D01*
X71524761Y136352381D01*
X71572380Y136257143D01*
X71572380Y136161905D01*
X71524761Y136066667D01*
X71477142Y136019048D01*
X71381904Y135971429D01*
X71191428Y135923810D01*
X70953333Y135923810D01*
X70762857Y135971429D01*
X70667619Y136019048D01*
X70620000Y136066667D01*
X70572380Y136161905D01*
X79954380Y135685953D02*
X79954380Y135114524D01*
X79954380Y135400239D02*
X78954380Y135400239D01*
X79097238Y135305000D01*
X79192476Y135209762D01*
X79240095Y135114524D01*
X79954380Y136114524D02*
X78954380Y136114524D01*
X79573428Y136209762D02*
X79954380Y136495477D01*
X79287714Y136495477D02*
X79668666Y136114524D01*
D13*
X92190476Y73238096D02*
X96190476Y73238096D01*
X93333333Y72571429D01*
X96190476Y71904762D01*
X92190476Y71904762D01*
X96190476Y71142858D02*
X96190476Y69809524D01*
X92190476Y71142858D01*
X92190476Y69809524D01*
X93714285Y69047620D02*
X93714285Y67523810D01*
X94476190Y66285715D02*
X94666666Y66476191D01*
X94857142Y66571429D01*
X95238095Y66666667D01*
X95428571Y66666667D01*
X95809523Y66571429D01*
X96000000Y66476191D01*
X96190476Y66285715D01*
X96190476Y65904762D01*
X96000000Y65714286D01*
X95809523Y65619048D01*
X95428571Y65523810D01*
X95238095Y65523810D01*
X94857142Y65619048D01*
X94666666Y65714286D01*
X94476190Y65904762D01*
X94476190Y66285715D01*
X94285714Y66476191D01*
X94095238Y66571429D01*
X93714285Y66666667D01*
X92952380Y66666667D01*
X92571428Y66571429D01*
X92380952Y66476191D01*
X92190476Y66285715D01*
X92190476Y65904762D01*
X92380952Y65714286D01*
X92571428Y65619048D01*
X92952380Y65523810D01*
X93714285Y65523810D01*
X94095238Y65619048D01*
X94285714Y65714286D01*
X94476190Y65904762D01*
X96190476Y64285715D02*
X96190476Y64095239D01*
X96000000Y63904762D01*
X95809523Y63809524D01*
X95428571Y63714286D01*
X94666666Y63619048D01*
X93714285Y63619048D01*
X92952380Y63714286D01*
X92571428Y63809524D01*
X92380952Y63904762D01*
X92190476Y64095239D01*
X92190476Y64285715D01*
X92380952Y64476191D01*
X92571428Y64571429D01*
X92952380Y64666667D01*
X93714285Y64761905D01*
X94666666Y64761905D01*
X95428571Y64666667D01*
X95809523Y64571429D01*
X96000000Y64476191D01*
X96190476Y64285715D01*
X94285714Y62095239D02*
X94095238Y61809524D01*
X93904761Y61714286D01*
X93523809Y61619048D01*
X92952380Y61619048D01*
X92571428Y61714286D01*
X92380952Y61809524D01*
X92190476Y62000000D01*
X92190476Y62761905D01*
X96190476Y62761905D01*
X96190476Y62095239D01*
X96000000Y61904762D01*
X95809523Y61809524D01*
X95428571Y61714286D01*
X95047619Y61714286D01*
X94666666Y61809524D01*
X94476190Y61904762D01*
X94285714Y62095239D01*
X94285714Y62761905D01*
X96000000Y58190477D02*
X96190476Y58380953D01*
X96190476Y58666667D01*
X96000000Y58952381D01*
X95619047Y59142858D01*
X95238095Y59238096D01*
X94476190Y59333334D01*
X93904761Y59333334D01*
X93142857Y59238096D01*
X92761904Y59142858D01*
X92380952Y58952381D01*
X92190476Y58666667D01*
X92190476Y58476191D01*
X92380952Y58190477D01*
X92571428Y58095239D01*
X93904761Y58095239D01*
X93904761Y58476191D01*
X92190476Y56095239D02*
X94095238Y56761905D01*
X92190476Y57238096D02*
X96190476Y57238096D01*
X96190476Y56476191D01*
X96000000Y56285715D01*
X95809523Y56190477D01*
X95428571Y56095239D01*
X94857142Y56095239D01*
X94476190Y56190477D01*
X94285714Y56285715D01*
X94095238Y56476191D01*
X94095238Y57238096D01*
X93333333Y55333334D02*
X93333333Y54380953D01*
X92190476Y55523810D02*
X96190476Y54857143D01*
X92190476Y54190477D01*
X92190476Y53523810D02*
X96190476Y53523810D01*
X93333333Y52857143D01*
X96190476Y52190477D01*
X92190476Y52190477D01*
X92190476Y48666667D02*
X92190476Y49809524D01*
X92190476Y49238096D02*
X96190476Y49238096D01*
X95619047Y49428572D01*
X95238095Y49619048D01*
X95047619Y49809524D01*
D14*
X61695000Y107465000D02*
X61695000Y103225000D01*
X58955000Y107465000D02*
X58955000Y103225000D01*
X61695000Y107465000D02*
X60990000Y107465000D01*
X59660000Y107465000D02*
X58955000Y107465000D01*
X61695000Y103225000D02*
X60990000Y103225000D01*
X59660000Y103225000D02*
X58955000Y103225000D01*
X92105000Y115045000D02*
X92810000Y115045000D01*
X90070000Y115045000D02*
X90775000Y115045000D01*
X92105000Y110805000D02*
X92810000Y110805000D01*
X90070000Y110805000D02*
X90775000Y110805000D01*
X92810000Y110805000D02*
X92810000Y115045000D01*
X90070000Y110805000D02*
X90070000Y115045000D01*
X92480000Y106055000D02*
X92810000Y106055000D01*
X92810000Y106055000D02*
X92810000Y99515000D01*
X92810000Y99515000D02*
X92480000Y99515000D01*
X90400000Y106055000D02*
X90070000Y106055000D01*
X90070000Y106055000D02*
X90070000Y99515000D01*
X90070000Y99515000D02*
X90400000Y99515000D01*
X79280000Y122570000D02*
X79280000Y122240000D01*
X85820000Y122570000D02*
X79280000Y122570000D01*
X85820000Y122240000D02*
X85820000Y122570000D01*
X79280000Y119830000D02*
X79280000Y120160000D01*
X85820000Y119830000D02*
X79280000Y119830000D01*
X85820000Y120160000D02*
X85820000Y119830000D01*
X48800000Y121300000D02*
X48800000Y120970000D01*
X55340000Y121300000D02*
X48800000Y121300000D01*
X55340000Y120970000D02*
X55340000Y121300000D01*
X48800000Y118560000D02*
X48800000Y118890000D01*
X55340000Y118560000D02*
X48800000Y118560000D01*
X55340000Y118890000D02*
X55340000Y118560000D01*
X82955000Y139075000D02*
X83285000Y139075000D01*
X83285000Y139075000D02*
X83285000Y132535000D01*
X83285000Y132535000D02*
X82955000Y132535000D01*
X80875000Y139075000D02*
X80545000Y139075000D01*
X80545000Y139075000D02*
X80545000Y132535000D01*
X80545000Y132535000D02*
X80875000Y132535000D01*
X62805000Y84005000D02*
X62805000Y78945000D01*
X62805000Y78945000D02*
X98485000Y78945000D01*
X98485000Y78945000D02*
X98485000Y91065000D01*
X98485000Y91065000D02*
X62805000Y91065000D01*
X62805000Y91065000D02*
X62805000Y86005000D01*
X62805000Y86005000D02*
G75*
G02*
X62805000Y84005000I0J-1000000D01*
G01*
X20590000Y66015000D02*
X19340000Y66015000D01*
X19340000Y66015000D02*
X19340000Y45575000D01*
X19340000Y45575000D02*
X23840000Y45575000D01*
X23840000Y45575000D02*
X23840000Y66015000D01*
X23840000Y66015000D02*
X22590000Y66015000D01*
X22590000Y66015000D02*
G75*
G02*
X20590000Y66015000I-1000000J0D01*
G01*
X35830000Y66015000D02*
X34580000Y66015000D01*
X34580000Y66015000D02*
X34580000Y45575000D01*
X34580000Y45575000D02*
X39080000Y45575000D01*
X39080000Y45575000D02*
X39080000Y66015000D01*
X39080000Y66015000D02*
X37830000Y66015000D01*
X37830000Y66015000D02*
G75*
G02*
X35830000Y66015000I-1000000J0D01*
G01*
X54320000Y66015000D02*
X53070000Y66015000D01*
X54320000Y45575000D02*
X54320000Y66015000D01*
X49820000Y45575000D02*
X54320000Y45575000D01*
X49820000Y66015000D02*
X49820000Y45575000D01*
X51070000Y66015000D02*
X49820000Y66015000D01*
X53070000Y66015000D02*
G75*
G02*
X51070000Y66015000I-1000000J0D01*
G01*
X68925000Y66015000D02*
X67675000Y66015000D01*
X68925000Y45575000D02*
X68925000Y66015000D01*
X64425000Y45575000D02*
X68925000Y45575000D01*
X64425000Y66015000D02*
X64425000Y45575000D01*
X65675000Y66015000D02*
X64425000Y66015000D01*
X67675000Y66015000D02*
G75*
G02*
X65675000Y66015000I-1000000J0D01*
G01*
X20590000Y88240000D02*
X19340000Y88240000D01*
X19340000Y88240000D02*
X19340000Y70340000D01*
X19340000Y70340000D02*
X23840000Y70340000D01*
X23840000Y70340000D02*
X23840000Y88240000D01*
X23840000Y88240000D02*
X22590000Y88240000D01*
X22590000Y88240000D02*
G75*
G02*
X20590000Y88240000I-1000000J0D01*
G01*
X39080000Y88240000D02*
X37830000Y88240000D01*
X39080000Y70340000D02*
X39080000Y88240000D01*
X34580000Y70340000D02*
X39080000Y70340000D01*
X34580000Y88240000D02*
X34580000Y70340000D01*
X35830000Y88240000D02*
X34580000Y88240000D01*
X37830000Y88240000D02*
G75*
G02*
X35830000Y88240000I-1000000J0D01*
G01*
X51070000Y88240000D02*
X49820000Y88240000D01*
X49820000Y88240000D02*
X49820000Y70340000D01*
X49820000Y70340000D02*
X54320000Y70340000D01*
X54320000Y70340000D02*
X54320000Y88240000D01*
X54320000Y88240000D02*
X53070000Y88240000D01*
X53070000Y88240000D02*
G75*
G02*
X51070000Y88240000I-1000000J0D01*
G01*
X19955000Y118720000D02*
X18705000Y118720000D01*
X18705000Y118720000D02*
X18705000Y93200000D01*
X18705000Y93200000D02*
X23205000Y93200000D01*
X23205000Y93200000D02*
X23205000Y118720000D01*
X23205000Y118720000D02*
X21955000Y118720000D01*
X21955000Y118720000D02*
G75*
G02*
X19955000Y118720000I-1000000J0D01*
G01*
X70195000Y118085000D02*
X68945000Y118085000D01*
X70195000Y100185000D02*
X70195000Y118085000D01*
X65695000Y100185000D02*
X70195000Y100185000D01*
X65695000Y118085000D02*
X65695000Y100185000D01*
X66945000Y118085000D02*
X65695000Y118085000D01*
X68945000Y118085000D02*
G75*
G02*
X66945000Y118085000I-1000000J0D01*
G01*
X84800000Y115545000D02*
X83550000Y115545000D01*
X84800000Y97645000D02*
X84800000Y115545000D01*
X80300000Y97645000D02*
X84800000Y97645000D01*
X80300000Y115545000D02*
X80300000Y97645000D01*
X81550000Y115545000D02*
X80300000Y115545000D01*
X83550000Y115545000D02*
G75*
G02*
X81550000Y115545000I-1000000J0D01*
G01*
X23205000Y140945000D02*
X21955000Y140945000D01*
X23205000Y123045000D02*
X23205000Y140945000D01*
X18705000Y123045000D02*
X23205000Y123045000D01*
X18705000Y140945000D02*
X18705000Y123045000D01*
X19955000Y140945000D02*
X18705000Y140945000D01*
X21955000Y140945000D02*
G75*
G02*
X19955000Y140945000I-1000000J0D01*
G01*
X35830000Y140945000D02*
X34580000Y140945000D01*
X34580000Y140945000D02*
X34580000Y123045000D01*
X34580000Y123045000D02*
X39080000Y123045000D01*
X39080000Y123045000D02*
X39080000Y140945000D01*
X39080000Y140945000D02*
X37830000Y140945000D01*
X37830000Y140945000D02*
G75*
G02*
X35830000Y140945000I-1000000J0D01*
G01*
X53610000Y140945000D02*
X52360000Y140945000D01*
X52360000Y140945000D02*
X52360000Y123045000D01*
X52360000Y123045000D02*
X56860000Y123045000D01*
X56860000Y123045000D02*
X56860000Y140945000D01*
X56860000Y140945000D02*
X55610000Y140945000D01*
X55610000Y140945000D02*
G75*
G02*
X53610000Y140945000I-1000000J0D01*
G01*
X70120000Y140945000D02*
X68870000Y140945000D01*
X68870000Y140945000D02*
X68870000Y123045000D01*
X68870000Y123045000D02*
X73370000Y123045000D01*
X73370000Y123045000D02*
X73370000Y140945000D01*
X73370000Y140945000D02*
X72120000Y140945000D01*
X72120000Y140945000D02*
G75*
G02*
X70120000Y140945000I-1000000J0D01*
G01*
X19490000Y68525000D02*
X19490000Y69230000D01*
X19490000Y66490000D02*
X19490000Y67195000D01*
X23730000Y68525000D02*
X23730000Y69230000D01*
X23730000Y66490000D02*
X23730000Y67195000D01*
X23730000Y69230000D02*
X19490000Y69230000D01*
X23730000Y66490000D02*
X19490000Y66490000D01*
X54210000Y66490000D02*
X49970000Y66490000D01*
X54210000Y69230000D02*
X49970000Y69230000D01*
X54210000Y66490000D02*
X54210000Y67195000D01*
X54210000Y68525000D02*
X54210000Y69230000D01*
X49970000Y66490000D02*
X49970000Y67195000D01*
X49970000Y68525000D02*
X49970000Y69230000D01*
X54210000Y114115000D02*
X49970000Y114115000D01*
X54210000Y116855000D02*
X49970000Y116855000D01*
X54210000Y114115000D02*
X54210000Y114820000D01*
X54210000Y116150000D02*
X54210000Y116855000D01*
X49970000Y114115000D02*
X49970000Y114820000D01*
X49970000Y116150000D02*
X49970000Y116855000D01*
X80410000Y118055000D02*
X80410000Y118760000D01*
X80410000Y116020000D02*
X80410000Y116725000D01*
X84650000Y118055000D02*
X84650000Y118760000D01*
X84650000Y116020000D02*
X84650000Y116725000D01*
X84650000Y118760000D02*
X80410000Y118760000D01*
X84650000Y116020000D02*
X80410000Y116020000D01*
X18855000Y121230000D02*
X18855000Y121935000D01*
X18855000Y119195000D02*
X18855000Y119900000D01*
X23095000Y121230000D02*
X23095000Y121935000D01*
X23095000Y119195000D02*
X23095000Y119900000D01*
X23095000Y121935000D02*
X18855000Y121935000D01*
X23095000Y119195000D02*
X18855000Y119195000D01*
X34730000Y68525000D02*
X34730000Y69230000D01*
X34730000Y66490000D02*
X34730000Y67195000D01*
X38970000Y68525000D02*
X38970000Y69230000D01*
X38970000Y66490000D02*
X38970000Y67195000D01*
X38970000Y69230000D02*
X34730000Y69230000D01*
X38970000Y66490000D02*
X34730000Y66490000D01*
X22968000Y141378000D02*
X18728000Y141378000D01*
X22968000Y144118000D02*
X18728000Y144118000D01*
X22968000Y141378000D02*
X22968000Y142083000D01*
X22968000Y143413000D02*
X22968000Y144118000D01*
X18728000Y141378000D02*
X18728000Y142083000D01*
X18728000Y143413000D02*
X18728000Y144118000D01*
X54210000Y88715000D02*
X49970000Y88715000D01*
X54210000Y91455000D02*
X49970000Y91455000D01*
X54210000Y88715000D02*
X54210000Y89420000D01*
X54210000Y90750000D02*
X54210000Y91455000D01*
X49970000Y88715000D02*
X49970000Y89420000D01*
X49970000Y90750000D02*
X49970000Y91455000D01*
X65845000Y120595000D02*
X65845000Y121300000D01*
X65845000Y118560000D02*
X65845000Y119265000D01*
X70085000Y120595000D02*
X70085000Y121300000D01*
X70085000Y118560000D02*
X70085000Y119265000D01*
X70085000Y121300000D02*
X65845000Y121300000D01*
X70085000Y118560000D02*
X65845000Y118560000D01*
X68775000Y67125000D02*
X64535000Y67125000D01*
X68775000Y69865000D02*
X64535000Y69865000D01*
X68775000Y67125000D02*
X68775000Y67830000D01*
X68775000Y69160000D02*
X68775000Y69865000D01*
X64535000Y67125000D02*
X64535000Y67830000D01*
X64535000Y69160000D02*
X64535000Y69865000D01*
X56750000Y141760000D02*
X52510000Y141760000D01*
X56750000Y144500000D02*
X52510000Y144500000D01*
X56750000Y141760000D02*
X56750000Y142465000D01*
X56750000Y143795000D02*
X56750000Y144500000D01*
X52510000Y141760000D02*
X52510000Y142465000D01*
X52510000Y143795000D02*
X52510000Y144500000D01*
X34730000Y90750000D02*
X34730000Y91455000D01*
X34730000Y88715000D02*
X34730000Y89420000D01*
X38970000Y90750000D02*
X38970000Y91455000D01*
X38970000Y88715000D02*
X38970000Y89420000D01*
X38970000Y91455000D02*
X34730000Y91455000D01*
X38970000Y88715000D02*
X34730000Y88715000D01*
X38970000Y141420000D02*
X34730000Y141420000D01*
X38970000Y144160000D02*
X34730000Y144160000D01*
X38970000Y141420000D02*
X38970000Y142125000D01*
X38970000Y143455000D02*
X38970000Y144160000D01*
X34730000Y141420000D02*
X34730000Y142125000D01*
X34730000Y143455000D02*
X34730000Y144160000D01*
X69020000Y143455000D02*
X69020000Y144160000D01*
X69020000Y141420000D02*
X69020000Y142125000D01*
X73260000Y143455000D02*
X73260000Y144160000D01*
X73260000Y141420000D02*
X73260000Y142125000D01*
X73260000Y144160000D02*
X69020000Y144160000D01*
X73260000Y141420000D02*
X69020000Y141420000D01*
X23730000Y88715000D02*
X19490000Y88715000D01*
X23730000Y91455000D02*
X19490000Y91455000D01*
X23730000Y88715000D02*
X23730000Y89420000D01*
X23730000Y90750000D02*
X23730000Y91455000D01*
X19490000Y88715000D02*
X19490000Y89420000D01*
X19490000Y90750000D02*
X19490000Y91455000D01*
X60295000Y81635000D02*
X59590000Y81635000D01*
X62330000Y81635000D02*
X61625000Y81635000D01*
X60295000Y85875000D02*
X59590000Y85875000D01*
X62330000Y85875000D02*
X61625000Y85875000D01*
X59590000Y85875000D02*
X59590000Y81635000D01*
X62330000Y85875000D02*
X62330000Y81635000D01*
X34730000Y120595000D02*
X34730000Y121300000D01*
X34730000Y118560000D02*
X34730000Y119265000D01*
X38970000Y120595000D02*
X38970000Y121300000D01*
X38970000Y118560000D02*
X38970000Y119265000D01*
X38970000Y121300000D02*
X34730000Y121300000D01*
X38970000Y118560000D02*
X34730000Y118560000D01*
X6490000Y60100000D02*
X5160000Y60100000D01*
X6490000Y61430000D02*
X6490000Y60100000D01*
X3890000Y60100000D02*
X1290000Y60100000D01*
X3890000Y62700000D02*
X3890000Y60100000D01*
X6490000Y62700000D02*
X3890000Y62700000D01*
X1290000Y60100000D02*
X1290000Y111020000D01*
X6490000Y62700000D02*
X6490000Y111020000D01*
X6490000Y111020000D02*
X1290000Y111020000D01*
X8696000Y118346000D02*
X7366000Y118346000D01*
X8696000Y119676000D02*
X8696000Y118346000D01*
X6096000Y118346000D02*
X3496000Y118346000D01*
X6096000Y120946000D02*
X6096000Y118346000D01*
X8696000Y120946000D02*
X6096000Y120946000D01*
X3496000Y118346000D02*
X3496000Y131166000D01*
X8696000Y120946000D02*
X8696000Y131166000D01*
X8696000Y131166000D02*
X3496000Y131166000D01*
X13811000Y147031225D02*
X14311000Y147031225D01*
X14061000Y146781225D02*
X14061000Y147281225D01*
X15252000Y152187000D02*
X15820000Y152187000D01*
X15018000Y152147000D02*
X16054000Y152147000D01*
X14859000Y152107000D02*
X16213000Y152107000D01*
X14731000Y152067000D02*
X16341000Y152067000D01*
X14621000Y152027000D02*
X16451000Y152027000D01*
X14525000Y151987000D02*
X16547000Y151987000D01*
X14438000Y151947000D02*
X16634000Y151947000D01*
X14358000Y151907000D02*
X16714000Y151907000D01*
X16576000Y151867000D02*
X16787000Y151867000D01*
X14285000Y151867000D02*
X14496000Y151867000D01*
X16576000Y151827000D02*
X16855000Y151827000D01*
X14217000Y151827000D02*
X14496000Y151827000D01*
X16576000Y151787000D02*
X16919000Y151787000D01*
X14153000Y151787000D02*
X14496000Y151787000D01*
X16576000Y151747000D02*
X16979000Y151747000D01*
X14093000Y151747000D02*
X14496000Y151747000D01*
X16576000Y151707000D02*
X17036000Y151707000D01*
X14036000Y151707000D02*
X14496000Y151707000D01*
X16576000Y151667000D02*
X17090000Y151667000D01*
X13982000Y151667000D02*
X14496000Y151667000D01*
X16576000Y151627000D02*
X17141000Y151627000D01*
X13931000Y151627000D02*
X14496000Y151627000D01*
X16576000Y151587000D02*
X17189000Y151587000D01*
X13883000Y151587000D02*
X14496000Y151587000D01*
X16576000Y151547000D02*
X17235000Y151547000D01*
X13837000Y151547000D02*
X14496000Y151547000D01*
X16576000Y151507000D02*
X17279000Y151507000D01*
X13793000Y151507000D02*
X14496000Y151507000D01*
X16576000Y151467000D02*
X17321000Y151467000D01*
X13751000Y151467000D02*
X14496000Y151467000D01*
X16576000Y151427000D02*
X17362000Y151427000D01*
X13710000Y151427000D02*
X14496000Y151427000D01*
X16576000Y151387000D02*
X17400000Y151387000D01*
X13672000Y151387000D02*
X14496000Y151387000D01*
X16576000Y151347000D02*
X17437000Y151347000D01*
X13635000Y151347000D02*
X14496000Y151347000D01*
X16576000Y151307000D02*
X17473000Y151307000D01*
X13599000Y151307000D02*
X14496000Y151307000D01*
X16576000Y151267000D02*
X17507000Y151267000D01*
X13565000Y151267000D02*
X14496000Y151267000D01*
X16576000Y151227000D02*
X17540000Y151227000D01*
X13532000Y151227000D02*
X14496000Y151227000D01*
X16576000Y151187000D02*
X17571000Y151187000D01*
X13501000Y151187000D02*
X14496000Y151187000D01*
X16576000Y151147000D02*
X17601000Y151147000D01*
X13471000Y151147000D02*
X14496000Y151147000D01*
X16576000Y151107000D02*
X17631000Y151107000D01*
X13441000Y151107000D02*
X14496000Y151107000D01*
X16576000Y151067000D02*
X17658000Y151067000D01*
X13414000Y151067000D02*
X14496000Y151067000D01*
X16576000Y151027000D02*
X17685000Y151027000D01*
X13387000Y151027000D02*
X14496000Y151027000D01*
X16576000Y150987000D02*
X17711000Y150987000D01*
X13361000Y150987000D02*
X14496000Y150987000D01*
X16576000Y150947000D02*
X17736000Y150947000D01*
X13336000Y150947000D02*
X14496000Y150947000D01*
X16576000Y150907000D02*
X17760000Y150907000D01*
X13312000Y150907000D02*
X14496000Y150907000D01*
X16576000Y150867000D02*
X17783000Y150867000D01*
X13289000Y150867000D02*
X14496000Y150867000D01*
X16576000Y150827000D02*
X17804000Y150827000D01*
X13268000Y150827000D02*
X14496000Y150827000D01*
X16576000Y150787000D02*
X17826000Y150787000D01*
X13246000Y150787000D02*
X14496000Y150787000D01*
X16576000Y150747000D02*
X17846000Y150747000D01*
X13226000Y150747000D02*
X14496000Y150747000D01*
X16576000Y150707000D02*
X17865000Y150707000D01*
X13207000Y150707000D02*
X14496000Y150707000D01*
X16576000Y150667000D02*
X17884000Y150667000D01*
X13188000Y150667000D02*
X14496000Y150667000D01*
X16576000Y150627000D02*
X17901000Y150627000D01*
X13171000Y150627000D02*
X14496000Y150627000D01*
X16576000Y150587000D02*
X17918000Y150587000D01*
X13154000Y150587000D02*
X14496000Y150587000D01*
X16576000Y150547000D02*
X17934000Y150547000D01*
X13138000Y150547000D02*
X14496000Y150547000D01*
X16576000Y150507000D02*
X17950000Y150507000D01*
X13122000Y150507000D02*
X14496000Y150507000D01*
X16576000Y150467000D02*
X17964000Y150467000D01*
X13108000Y150467000D02*
X14496000Y150467000D01*
X16576000Y150427000D02*
X17978000Y150427000D01*
X13094000Y150427000D02*
X14496000Y150427000D01*
X16576000Y150387000D02*
X17991000Y150387000D01*
X13081000Y150387000D02*
X14496000Y150387000D01*
X16576000Y150347000D02*
X18004000Y150347000D01*
X13068000Y150347000D02*
X14496000Y150347000D01*
X16576000Y150307000D02*
X18016000Y150307000D01*
X13056000Y150307000D02*
X14496000Y150307000D01*
X16576000Y150266000D02*
X18027000Y150266000D01*
X13045000Y150266000D02*
X14496000Y150266000D01*
X16576000Y150226000D02*
X18037000Y150226000D01*
X13035000Y150226000D02*
X14496000Y150226000D01*
X16576000Y150186000D02*
X18047000Y150186000D01*
X13025000Y150186000D02*
X14496000Y150186000D01*
X16576000Y150146000D02*
X18056000Y150146000D01*
X13016000Y150146000D02*
X14496000Y150146000D01*
X16576000Y150106000D02*
X18064000Y150106000D01*
X13008000Y150106000D02*
X14496000Y150106000D01*
X16576000Y150066000D02*
X18072000Y150066000D01*
X13000000Y150066000D02*
X14496000Y150066000D01*
X16576000Y150026000D02*
X18079000Y150026000D01*
X12993000Y150026000D02*
X14496000Y150026000D01*
X16576000Y149986000D02*
X18086000Y149986000D01*
X12986000Y149986000D02*
X14496000Y149986000D01*
X16576000Y149946000D02*
X18092000Y149946000D01*
X12980000Y149946000D02*
X14496000Y149946000D01*
X16576000Y149906000D02*
X18097000Y149906000D01*
X12975000Y149906000D02*
X14496000Y149906000D01*
X16576000Y149866000D02*
X18101000Y149866000D01*
X12971000Y149866000D02*
X14496000Y149866000D01*
X16576000Y149826000D02*
X18105000Y149826000D01*
X12967000Y149826000D02*
X14496000Y149826000D01*
X12963000Y149786000D02*
X18109000Y149786000D01*
X12960000Y149746000D02*
X18112000Y149746000D01*
X12958000Y149706000D02*
X18114000Y149706000D01*
X12957000Y149666000D02*
X18115000Y149666000D01*
X12956000Y149626000D02*
X18116000Y149626000D01*
X12956000Y149586000D02*
X18116000Y149586000D01*
X18156000Y149586000D02*
G75*
G03*
X18156000Y149586000I-2620000J0D01*
G01*
X35830000Y118085000D02*
X34580000Y118085000D01*
X34580000Y118085000D02*
X34580000Y97645000D01*
X34580000Y97645000D02*
X39080000Y97645000D01*
X39080000Y97645000D02*
X39080000Y118085000D01*
X39080000Y118085000D02*
X37830000Y118085000D01*
X37830000Y118085000D02*
G75*
G02*
X35830000Y118085000I-1000000J0D01*
G01*
X54320000Y113640000D02*
X53070000Y113640000D01*
X54320000Y93200000D02*
X54320000Y113640000D01*
X49820000Y93200000D02*
X54320000Y93200000D01*
X49820000Y113640000D02*
X49820000Y93200000D01*
X51070000Y113640000D02*
X49820000Y113640000D01*
X53070000Y113640000D02*
G75*
G02*
X51070000Y113640000I-1000000J0D01*
G01*
X86080000Y124630000D02*
X86080000Y124960000D01*
X79540000Y124630000D02*
X86080000Y124630000D01*
X79540000Y124960000D02*
X79540000Y124630000D01*
X86080000Y127370000D02*
X86080000Y127040000D01*
X79540000Y127370000D02*
X86080000Y127370000D01*
X79540000Y127040000D02*
X79540000Y127370000D01*
X61365000Y117485000D02*
X61695000Y117485000D01*
X61695000Y117485000D02*
X61695000Y110945000D01*
X61695000Y110945000D02*
X61365000Y110945000D01*
X59285000Y117485000D02*
X58955000Y117485000D01*
X58955000Y117485000D02*
X58955000Y110945000D01*
X58955000Y110945000D02*
X59285000Y110945000D01*
X82915000Y53204000D02*
X81585000Y53204000D01*
X82915000Y54534000D02*
X82915000Y53204000D01*
X80315000Y53204000D02*
X77715000Y53204000D01*
X80315000Y55804000D02*
X80315000Y53204000D01*
X82915000Y55804000D02*
X80315000Y55804000D01*
X77715000Y53204000D02*
X77715000Y66024000D01*
X82915000Y55804000D02*
X82915000Y66024000D01*
X82915000Y66024000D02*
X77715000Y66024000D01*
D12*
X58777142Y108587334D02*
X58824761Y108539715D01*
X58872380Y108396858D01*
X58872380Y108301620D01*
X58824761Y108158762D01*
X58729523Y108063524D01*
X58634285Y108015905D01*
X58443809Y107968286D01*
X58300952Y107968286D01*
X58110476Y108015905D01*
X58015238Y108063524D01*
X57920000Y108158762D01*
X57872380Y108301620D01*
X57872380Y108396858D01*
X57920000Y108539715D01*
X57967619Y108587334D01*
X57872380Y108920667D02*
X57872380Y109587334D01*
X58872380Y109158762D01*
X94337142Y112302143D02*
X94384761Y112254524D01*
X94432380Y112111667D01*
X94432380Y112016429D01*
X94384761Y111873572D01*
X94289523Y111778334D01*
X94194285Y111730715D01*
X94003809Y111683096D01*
X93860952Y111683096D01*
X93670476Y111730715D01*
X93575238Y111778334D01*
X93480000Y111873572D01*
X93432380Y112016429D01*
X93432380Y112111667D01*
X93480000Y112254524D01*
X93527619Y112302143D01*
X94432380Y113254524D02*
X94432380Y112683096D01*
X94432380Y112968810D02*
X93432380Y112968810D01*
X93575238Y112873572D01*
X93670476Y112778334D01*
X93718095Y112683096D01*
X93432380Y114159286D02*
X93432380Y113683096D01*
X93908571Y113635477D01*
X93860952Y113683096D01*
X93813333Y113778334D01*
X93813333Y114016429D01*
X93860952Y114111667D01*
X93908571Y114159286D01*
X94003809Y114206905D01*
X94241904Y114206905D01*
X94337142Y114159286D01*
X94384761Y114111667D01*
X94432380Y114016429D01*
X94432380Y113778334D01*
X94384761Y113683096D01*
X94337142Y113635477D01*
X94262380Y102618334D02*
X93786190Y102285000D01*
X94262380Y102046905D02*
X93262380Y102046905D01*
X93262380Y102427858D01*
X93310000Y102523096D01*
X93357619Y102570715D01*
X93452857Y102618334D01*
X93595714Y102618334D01*
X93690952Y102570715D01*
X93738571Y102523096D01*
X93786190Y102427858D01*
X93786190Y102046905D01*
X94262380Y103570715D02*
X94262380Y102999286D01*
X94262380Y103285000D02*
X93262380Y103285000D01*
X93405238Y103189762D01*
X93500476Y103094524D01*
X93548095Y102999286D01*
X88733333Y120747620D02*
X88400000Y121223810D01*
X88161904Y120747620D02*
X88161904Y121747620D01*
X88542857Y121747620D01*
X88638095Y121700000D01*
X88685714Y121652381D01*
X88733333Y121557143D01*
X88733333Y121414286D01*
X88685714Y121319048D01*
X88638095Y121271429D01*
X88542857Y121223810D01*
X88161904Y121223810D01*
X89114285Y121652381D02*
X89161904Y121700000D01*
X89257142Y121747620D01*
X89495238Y121747620D01*
X89590476Y121700000D01*
X89638095Y121652381D01*
X89685714Y121557143D01*
X89685714Y121461905D01*
X89638095Y121319048D01*
X89066666Y120747620D01*
X89685714Y120747620D01*
X58253333Y119477620D02*
X57920000Y119953810D01*
X57681904Y119477620D02*
X57681904Y120477620D01*
X58062857Y120477620D01*
X58158095Y120430000D01*
X58205714Y120382381D01*
X58253333Y120287143D01*
X58253333Y120144286D01*
X58205714Y120049048D01*
X58158095Y120001429D01*
X58062857Y119953810D01*
X57681904Y119953810D01*
X58586666Y120477620D02*
X59205714Y120477620D01*
X58872380Y120096667D01*
X59015238Y120096667D01*
X59110476Y120049048D01*
X59158095Y120001429D01*
X59205714Y119906191D01*
X59205714Y119668096D01*
X59158095Y119572858D01*
X59110476Y119525239D01*
X59015238Y119477620D01*
X58729523Y119477620D01*
X58634285Y119525239D01*
X58586666Y119572858D01*
X84737380Y135638334D02*
X84261190Y135305000D01*
X84737380Y135066905D02*
X83737380Y135066905D01*
X83737380Y135447858D01*
X83785000Y135543096D01*
X83832619Y135590715D01*
X83927857Y135638334D01*
X84070714Y135638334D01*
X84165952Y135590715D01*
X84213571Y135543096D01*
X84261190Y135447858D01*
X84261190Y135066905D01*
X84070714Y136495477D02*
X84737380Y136495477D01*
X83689761Y136257381D02*
X84404047Y136019286D01*
X84404047Y136638334D01*
X76922380Y84243096D02*
X77731904Y84243096D01*
X77827142Y84290715D01*
X77874761Y84338334D01*
X77922380Y84433572D01*
X77922380Y84624048D01*
X77874761Y84719286D01*
X77827142Y84766905D01*
X77731904Y84814524D01*
X76922380Y84814524D01*
X77922380Y85814524D02*
X77922380Y85243096D01*
X77922380Y85528810D02*
X76922380Y85528810D01*
X77065238Y85433572D01*
X77160476Y85338334D01*
X77208095Y85243096D01*
X21042380Y51223096D02*
X21851904Y51223096D01*
X21947142Y51270715D01*
X21994761Y51318334D01*
X22042380Y51413572D01*
X22042380Y51604048D01*
X21994761Y51699286D01*
X21947142Y51746905D01*
X21851904Y51794524D01*
X21042380Y51794524D01*
X21042380Y52746905D02*
X21042380Y52270715D01*
X21518571Y52223096D01*
X21470952Y52270715D01*
X21423333Y52365953D01*
X21423333Y52604048D01*
X21470952Y52699286D01*
X21518571Y52746905D01*
X21613809Y52794524D01*
X21851904Y52794524D01*
X21947142Y52746905D01*
X21994761Y52699286D01*
X22042380Y52604048D01*
X22042380Y52365953D01*
X21994761Y52270715D01*
X21947142Y52223096D01*
X36282380Y51858096D02*
X37091904Y51858096D01*
X37187142Y51905715D01*
X37234761Y51953334D01*
X37282380Y52048572D01*
X37282380Y52239048D01*
X37234761Y52334286D01*
X37187142Y52381905D01*
X37091904Y52429524D01*
X36282380Y52429524D01*
X36282380Y53334286D02*
X36282380Y53143810D01*
X36330000Y53048572D01*
X36377619Y53000953D01*
X36520476Y52905715D01*
X36710952Y52858096D01*
X37091904Y52858096D01*
X37187142Y52905715D01*
X37234761Y52953334D01*
X37282380Y53048572D01*
X37282380Y53239048D01*
X37234761Y53334286D01*
X37187142Y53381905D01*
X37091904Y53429524D01*
X36853809Y53429524D01*
X36758571Y53381905D01*
X36710952Y53334286D01*
X36663333Y53239048D01*
X36663333Y53048572D01*
X36710952Y52953334D01*
X36758571Y52905715D01*
X36853809Y52858096D01*
X51522380Y51858096D02*
X52331904Y51858096D01*
X52427142Y51905715D01*
X52474761Y51953334D01*
X52522380Y52048572D01*
X52522380Y52239048D01*
X52474761Y52334286D01*
X52427142Y52381905D01*
X52331904Y52429524D01*
X51522380Y52429524D01*
X51522380Y52810477D02*
X51522380Y53477143D01*
X52522380Y53048572D01*
X66127380Y50588096D02*
X66936904Y50588096D01*
X67032142Y50635715D01*
X67079761Y50683334D01*
X67127380Y50778572D01*
X67127380Y50969048D01*
X67079761Y51064286D01*
X67032142Y51111905D01*
X66936904Y51159524D01*
X66127380Y51159524D01*
X66555952Y51778572D02*
X66508333Y51683334D01*
X66460714Y51635715D01*
X66365476Y51588096D01*
X66317857Y51588096D01*
X66222619Y51635715D01*
X66175000Y51683334D01*
X66127380Y51778572D01*
X66127380Y51969048D01*
X66175000Y52064286D01*
X66222619Y52111905D01*
X66317857Y52159524D01*
X66365476Y52159524D01*
X66460714Y52111905D01*
X66508333Y52064286D01*
X66555952Y51969048D01*
X66555952Y51778572D01*
X66603571Y51683334D01*
X66651190Y51635715D01*
X66746428Y51588096D01*
X66936904Y51588096D01*
X67032142Y51635715D01*
X67079761Y51683334D01*
X67127380Y51778572D01*
X67127380Y51969048D01*
X67079761Y52064286D01*
X67032142Y52111905D01*
X66936904Y52159524D01*
X66746428Y52159524D01*
X66651190Y52111905D01*
X66603571Y52064286D01*
X66555952Y51969048D01*
X21042380Y73606905D02*
X21851904Y73606905D01*
X21947142Y73654524D01*
X21994761Y73702143D01*
X22042380Y73797381D01*
X22042380Y73987858D01*
X21994761Y74083096D01*
X21947142Y74130715D01*
X21851904Y74178334D01*
X21042380Y74178334D01*
X22042380Y75178334D02*
X22042380Y74606905D01*
X22042380Y74892620D02*
X21042380Y74892620D01*
X21185238Y74797381D01*
X21280476Y74702143D01*
X21328095Y74606905D01*
X21042380Y75797381D02*
X21042380Y75892620D01*
X21090000Y75987858D01*
X21137619Y76035477D01*
X21232857Y76083096D01*
X21423333Y76130715D01*
X21661428Y76130715D01*
X21851904Y76083096D01*
X21947142Y76035477D01*
X21994761Y75987858D01*
X22042380Y75892620D01*
X22042380Y75797381D01*
X21994761Y75702143D01*
X21947142Y75654524D01*
X21851904Y75606905D01*
X21661428Y75559286D01*
X21423333Y75559286D01*
X21232857Y75606905D01*
X21137619Y75654524D01*
X21090000Y75702143D01*
X21042380Y75797381D01*
X36282380Y72971905D02*
X37091904Y72971905D01*
X37187142Y73019524D01*
X37234761Y73067143D01*
X37282380Y73162381D01*
X37282380Y73352858D01*
X37234761Y73448096D01*
X37187142Y73495715D01*
X37091904Y73543334D01*
X36282380Y73543334D01*
X37282380Y74543334D02*
X37282380Y73971905D01*
X37282380Y74257620D02*
X36282380Y74257620D01*
X36425238Y74162381D01*
X36520476Y74067143D01*
X36568095Y73971905D01*
X37282380Y75495715D02*
X37282380Y74924286D01*
X37282380Y75210000D02*
X36282380Y75210000D01*
X36425238Y75114762D01*
X36520476Y75019524D01*
X36568095Y74924286D01*
X51522380Y73606905D02*
X52331904Y73606905D01*
X52427142Y73654524D01*
X52474761Y73702143D01*
X52522380Y73797381D01*
X52522380Y73987858D01*
X52474761Y74083096D01*
X52427142Y74130715D01*
X52331904Y74178334D01*
X51522380Y74178334D01*
X52522380Y75178334D02*
X52522380Y74606905D01*
X52522380Y74892620D02*
X51522380Y74892620D01*
X51665238Y74797381D01*
X51760476Y74702143D01*
X51808095Y74606905D01*
X51617619Y75559286D02*
X51570000Y75606905D01*
X51522380Y75702143D01*
X51522380Y75940239D01*
X51570000Y76035477D01*
X51617619Y76083096D01*
X51712857Y76130715D01*
X51808095Y76130715D01*
X51950952Y76083096D01*
X52522380Y75511667D01*
X52522380Y76130715D01*
X20407380Y97736905D02*
X21216904Y97736905D01*
X21312142Y97784524D01*
X21359761Y97832143D01*
X21407380Y97927381D01*
X21407380Y98117858D01*
X21359761Y98213096D01*
X21312142Y98260715D01*
X21216904Y98308334D01*
X20407380Y98308334D01*
X21407380Y99308334D02*
X21407380Y98736905D01*
X21407380Y99022620D02*
X20407380Y99022620D01*
X20550238Y98927381D01*
X20645476Y98832143D01*
X20693095Y98736905D01*
X20407380Y99641667D02*
X20407380Y100260715D01*
X20788333Y99927381D01*
X20788333Y100070239D01*
X20835952Y100165477D01*
X20883571Y100213096D01*
X20978809Y100260715D01*
X21216904Y100260715D01*
X21312142Y100213096D01*
X21359761Y100165477D01*
X21407380Y100070239D01*
X21407380Y99784524D01*
X21359761Y99689286D01*
X21312142Y99641667D01*
X67397380Y104086905D02*
X68206904Y104086905D01*
X68302142Y104134524D01*
X68349761Y104182143D01*
X68397380Y104277381D01*
X68397380Y104467858D01*
X68349761Y104563096D01*
X68302142Y104610715D01*
X68206904Y104658334D01*
X67397380Y104658334D01*
X68397380Y105658334D02*
X68397380Y105086905D01*
X68397380Y105372620D02*
X67397380Y105372620D01*
X67540238Y105277381D01*
X67635476Y105182143D01*
X67683095Y105086905D01*
X67397380Y106515477D02*
X67397380Y106325000D01*
X67445000Y106229762D01*
X67492619Y106182143D01*
X67635476Y106086905D01*
X67825952Y106039286D01*
X68206904Y106039286D01*
X68302142Y106086905D01*
X68349761Y106134524D01*
X68397380Y106229762D01*
X68397380Y106420239D01*
X68349761Y106515477D01*
X68302142Y106563096D01*
X68206904Y106610715D01*
X67968809Y106610715D01*
X67873571Y106563096D01*
X67825952Y106515477D01*
X67778333Y106420239D01*
X67778333Y106229762D01*
X67825952Y106134524D01*
X67873571Y106086905D01*
X67968809Y106039286D01*
X82002380Y100911905D02*
X82811904Y100911905D01*
X82907142Y100959524D01*
X82954761Y101007143D01*
X83002380Y101102381D01*
X83002380Y101292858D01*
X82954761Y101388096D01*
X82907142Y101435715D01*
X82811904Y101483334D01*
X82002380Y101483334D01*
X83002380Y102483334D02*
X83002380Y101911905D01*
X83002380Y102197620D02*
X82002380Y102197620D01*
X82145238Y102102381D01*
X82240476Y102007143D01*
X82288095Y101911905D01*
X82002380Y102816667D02*
X82002380Y103483334D01*
X83002380Y103054762D01*
X20407380Y126311905D02*
X21216904Y126311905D01*
X21312142Y126359524D01*
X21359761Y126407143D01*
X21407380Y126502381D01*
X21407380Y126692858D01*
X21359761Y126788096D01*
X21312142Y126835715D01*
X21216904Y126883334D01*
X20407380Y126883334D01*
X21407380Y127883334D02*
X21407380Y127311905D01*
X21407380Y127597620D02*
X20407380Y127597620D01*
X20550238Y127502381D01*
X20645476Y127407143D01*
X20693095Y127311905D01*
X20835952Y128454762D02*
X20788333Y128359524D01*
X20740714Y128311905D01*
X20645476Y128264286D01*
X20597857Y128264286D01*
X20502619Y128311905D01*
X20455000Y128359524D01*
X20407380Y128454762D01*
X20407380Y128645239D01*
X20455000Y128740477D01*
X20502619Y128788096D01*
X20597857Y128835715D01*
X20645476Y128835715D01*
X20740714Y128788096D01*
X20788333Y128740477D01*
X20835952Y128645239D01*
X20835952Y128454762D01*
X20883571Y128359524D01*
X20931190Y128311905D01*
X21026428Y128264286D01*
X21216904Y128264286D01*
X21312142Y128311905D01*
X21359761Y128359524D01*
X21407380Y128454762D01*
X21407380Y128645239D01*
X21359761Y128740477D01*
X21312142Y128788096D01*
X21216904Y128835715D01*
X21026428Y128835715D01*
X20931190Y128788096D01*
X20883571Y128740477D01*
X20835952Y128645239D01*
X36282380Y126946905D02*
X37091904Y126946905D01*
X37187142Y126994524D01*
X37234761Y127042143D01*
X37282380Y127137381D01*
X37282380Y127327858D01*
X37234761Y127423096D01*
X37187142Y127470715D01*
X37091904Y127518334D01*
X36282380Y127518334D01*
X37282380Y128518334D02*
X37282380Y127946905D01*
X37282380Y128232620D02*
X36282380Y128232620D01*
X36425238Y128137381D01*
X36520476Y128042143D01*
X36568095Y127946905D01*
X37282380Y128994524D02*
X37282380Y129185000D01*
X37234761Y129280239D01*
X37187142Y129327858D01*
X37044285Y129423096D01*
X36853809Y129470715D01*
X36472857Y129470715D01*
X36377619Y129423096D01*
X36330000Y129375477D01*
X36282380Y129280239D01*
X36282380Y129089762D01*
X36330000Y128994524D01*
X36377619Y128946905D01*
X36472857Y128899286D01*
X36710952Y128899286D01*
X36806190Y128946905D01*
X36853809Y128994524D01*
X36901428Y129089762D01*
X36901428Y129280239D01*
X36853809Y129375477D01*
X36806190Y129423096D01*
X36710952Y129470715D01*
X54062380Y127581905D02*
X54871904Y127581905D01*
X54967142Y127629524D01*
X55014761Y127677143D01*
X55062380Y127772381D01*
X55062380Y127962858D01*
X55014761Y128058096D01*
X54967142Y128105715D01*
X54871904Y128153334D01*
X54062380Y128153334D01*
X54157619Y128581905D02*
X54110000Y128629524D01*
X54062380Y128724762D01*
X54062380Y128962858D01*
X54110000Y129058096D01*
X54157619Y129105715D01*
X54252857Y129153334D01*
X54348095Y129153334D01*
X54490952Y129105715D01*
X55062380Y128534286D01*
X55062380Y129153334D01*
X54062380Y129772381D02*
X54062380Y129867620D01*
X54110000Y129962858D01*
X54157619Y130010477D01*
X54252857Y130058096D01*
X54443333Y130105715D01*
X54681428Y130105715D01*
X54871904Y130058096D01*
X54967142Y130010477D01*
X55014761Y129962858D01*
X55062380Y129867620D01*
X55062380Y129772381D01*
X55014761Y129677143D01*
X54967142Y129629524D01*
X54871904Y129581905D01*
X54681428Y129534286D01*
X54443333Y129534286D01*
X54252857Y129581905D01*
X54157619Y129629524D01*
X54110000Y129677143D01*
X54062380Y129772381D01*
X70572380Y125676905D02*
X71381904Y125676905D01*
X71477142Y125724524D01*
X71524761Y125772143D01*
X71572380Y125867381D01*
X71572380Y126057858D01*
X71524761Y126153096D01*
X71477142Y126200715D01*
X71381904Y126248334D01*
X70572380Y126248334D01*
X70667619Y126676905D02*
X70620000Y126724524D01*
X70572380Y126819762D01*
X70572380Y127057858D01*
X70620000Y127153096D01*
X70667619Y127200715D01*
X70762857Y127248334D01*
X70858095Y127248334D01*
X71000952Y127200715D01*
X71572380Y126629286D01*
X71572380Y127248334D01*
X71572380Y128200715D02*
X71572380Y127629286D01*
X71572380Y127915000D02*
X70572380Y127915000D01*
X70715238Y127819762D01*
X70810476Y127724524D01*
X70858095Y127629286D01*
X25233333Y67502858D02*
X25185714Y67455239D01*
X25042857Y67407620D01*
X24947619Y67407620D01*
X24804761Y67455239D01*
X24709523Y67550477D01*
X24661904Y67645715D01*
X24614285Y67836191D01*
X24614285Y67979048D01*
X24661904Y68169524D01*
X24709523Y68264762D01*
X24804761Y68360000D01*
X24947619Y68407620D01*
X25042857Y68407620D01*
X25185714Y68360000D01*
X25233333Y68312381D01*
X25614285Y68312381D02*
X25661904Y68360000D01*
X25757142Y68407620D01*
X25995238Y68407620D01*
X26090476Y68360000D01*
X26138095Y68312381D01*
X26185714Y68217143D01*
X26185714Y68121905D01*
X26138095Y67979048D01*
X25566666Y67407620D01*
X26185714Y67407620D01*
X55713333Y67502858D02*
X55665714Y67455239D01*
X55522857Y67407620D01*
X55427619Y67407620D01*
X55284761Y67455239D01*
X55189523Y67550477D01*
X55141904Y67645715D01*
X55094285Y67836191D01*
X55094285Y67979048D01*
X55141904Y68169524D01*
X55189523Y68264762D01*
X55284761Y68360000D01*
X55427619Y68407620D01*
X55522857Y68407620D01*
X55665714Y68360000D01*
X55713333Y68312381D01*
X56046666Y68407620D02*
X56665714Y68407620D01*
X56332380Y68026667D01*
X56475238Y68026667D01*
X56570476Y67979048D01*
X56618095Y67931429D01*
X56665714Y67836191D01*
X56665714Y67598096D01*
X56618095Y67502858D01*
X56570476Y67455239D01*
X56475238Y67407620D01*
X56189523Y67407620D01*
X56094285Y67455239D01*
X56046666Y67502858D01*
X55713333Y115127858D02*
X55665714Y115080239D01*
X55522857Y115032620D01*
X55427619Y115032620D01*
X55284761Y115080239D01*
X55189523Y115175477D01*
X55141904Y115270715D01*
X55094285Y115461191D01*
X55094285Y115604048D01*
X55141904Y115794524D01*
X55189523Y115889762D01*
X55284761Y115985000D01*
X55427619Y116032620D01*
X55522857Y116032620D01*
X55665714Y115985000D01*
X55713333Y115937381D01*
X56570476Y115699286D02*
X56570476Y115032620D01*
X56332380Y116080239D02*
X56094285Y115365953D01*
X56713333Y115365953D01*
X86193333Y117032858D02*
X86145714Y116985239D01*
X86002857Y116937620D01*
X85907619Y116937620D01*
X85764761Y116985239D01*
X85669523Y117080477D01*
X85621904Y117175715D01*
X85574285Y117366191D01*
X85574285Y117509048D01*
X85621904Y117699524D01*
X85669523Y117794762D01*
X85764761Y117890000D01*
X85907619Y117937620D01*
X86002857Y117937620D01*
X86145714Y117890000D01*
X86193333Y117842381D01*
X87098095Y117937620D02*
X86621904Y117937620D01*
X86574285Y117461429D01*
X86621904Y117509048D01*
X86717142Y117556667D01*
X86955238Y117556667D01*
X87050476Y117509048D01*
X87098095Y117461429D01*
X87145714Y117366191D01*
X87145714Y117128096D01*
X87098095Y117032858D01*
X87050476Y116985239D01*
X86955238Y116937620D01*
X86717142Y116937620D01*
X86621904Y116985239D01*
X86574285Y117032858D01*
X24598333Y120207858D02*
X24550714Y120160239D01*
X24407857Y120112620D01*
X24312619Y120112620D01*
X24169761Y120160239D01*
X24074523Y120255477D01*
X24026904Y120350715D01*
X23979285Y120541191D01*
X23979285Y120684048D01*
X24026904Y120874524D01*
X24074523Y120969762D01*
X24169761Y121065000D01*
X24312619Y121112620D01*
X24407857Y121112620D01*
X24550714Y121065000D01*
X24598333Y121017381D01*
X25455476Y121112620D02*
X25265000Y121112620D01*
X25169761Y121065000D01*
X25122142Y121017381D01*
X25026904Y120874524D01*
X24979285Y120684048D01*
X24979285Y120303096D01*
X25026904Y120207858D01*
X25074523Y120160239D01*
X25169761Y120112620D01*
X25360238Y120112620D01*
X25455476Y120160239D01*
X25503095Y120207858D01*
X25550714Y120303096D01*
X25550714Y120541191D01*
X25503095Y120636429D01*
X25455476Y120684048D01*
X25360238Y120731667D01*
X25169761Y120731667D01*
X25074523Y120684048D01*
X25026904Y120636429D01*
X24979285Y120541191D01*
X40473333Y67502858D02*
X40425714Y67455239D01*
X40282857Y67407620D01*
X40187619Y67407620D01*
X40044761Y67455239D01*
X39949523Y67550477D01*
X39901904Y67645715D01*
X39854285Y67836191D01*
X39854285Y67979048D01*
X39901904Y68169524D01*
X39949523Y68264762D01*
X40044761Y68360000D01*
X40187619Y68407620D01*
X40282857Y68407620D01*
X40425714Y68360000D01*
X40473333Y68312381D01*
X41044761Y67979048D02*
X40949523Y68026667D01*
X40901904Y68074286D01*
X40854285Y68169524D01*
X40854285Y68217143D01*
X40901904Y68312381D01*
X40949523Y68360000D01*
X41044761Y68407620D01*
X41235238Y68407620D01*
X41330476Y68360000D01*
X41378095Y68312381D01*
X41425714Y68217143D01*
X41425714Y68169524D01*
X41378095Y68074286D01*
X41330476Y68026667D01*
X41235238Y67979048D01*
X41044761Y67979048D01*
X40949523Y67931429D01*
X40901904Y67883810D01*
X40854285Y67788572D01*
X40854285Y67598096D01*
X40901904Y67502858D01*
X40949523Y67455239D01*
X41044761Y67407620D01*
X41235238Y67407620D01*
X41330476Y67455239D01*
X41378095Y67502858D01*
X41425714Y67598096D01*
X41425714Y67788572D01*
X41378095Y67883810D01*
X41330476Y67931429D01*
X41235238Y67979048D01*
X24471333Y142390858D02*
X24423714Y142343239D01*
X24280857Y142295620D01*
X24185619Y142295620D01*
X24042761Y142343239D01*
X23947523Y142438477D01*
X23899904Y142533715D01*
X23852285Y142724191D01*
X23852285Y142867048D01*
X23899904Y143057524D01*
X23947523Y143152762D01*
X24042761Y143248000D01*
X24185619Y143295620D01*
X24280857Y143295620D01*
X24423714Y143248000D01*
X24471333Y143200381D01*
X24947523Y142295620D02*
X25138000Y142295620D01*
X25233238Y142343239D01*
X25280857Y142390858D01*
X25376095Y142533715D01*
X25423714Y142724191D01*
X25423714Y143105143D01*
X25376095Y143200381D01*
X25328476Y143248000D01*
X25233238Y143295620D01*
X25042761Y143295620D01*
X24947523Y143248000D01*
X24899904Y143200381D01*
X24852285Y143105143D01*
X24852285Y142867048D01*
X24899904Y142771810D01*
X24947523Y142724191D01*
X25042761Y142676572D01*
X25233238Y142676572D01*
X25328476Y142724191D01*
X25376095Y142771810D01*
X25423714Y142867048D01*
X55872142Y89727858D02*
X55824523Y89680239D01*
X55681666Y89632620D01*
X55586428Y89632620D01*
X55443571Y89680239D01*
X55348333Y89775477D01*
X55300714Y89870715D01*
X55253095Y90061191D01*
X55253095Y90204048D01*
X55300714Y90394524D01*
X55348333Y90489762D01*
X55443571Y90585000D01*
X55586428Y90632620D01*
X55681666Y90632620D01*
X55824523Y90585000D01*
X55872142Y90537381D01*
X56824523Y89632620D02*
X56253095Y89632620D01*
X56538809Y89632620D02*
X56538809Y90632620D01*
X56443571Y90489762D01*
X56348333Y90394524D01*
X56253095Y90346905D01*
X57443571Y90632620D02*
X57538809Y90632620D01*
X57634047Y90585000D01*
X57681666Y90537381D01*
X57729285Y90442143D01*
X57776904Y90251667D01*
X57776904Y90013572D01*
X57729285Y89823096D01*
X57681666Y89727858D01*
X57634047Y89680239D01*
X57538809Y89632620D01*
X57443571Y89632620D01*
X57348333Y89680239D01*
X57300714Y89727858D01*
X57253095Y89823096D01*
X57205476Y90013572D01*
X57205476Y90251667D01*
X57253095Y90442143D01*
X57300714Y90537381D01*
X57348333Y90585000D01*
X57443571Y90632620D01*
X71747142Y119572858D02*
X71699523Y119525239D01*
X71556666Y119477620D01*
X71461428Y119477620D01*
X71318571Y119525239D01*
X71223333Y119620477D01*
X71175714Y119715715D01*
X71128095Y119906191D01*
X71128095Y120049048D01*
X71175714Y120239524D01*
X71223333Y120334762D01*
X71318571Y120430000D01*
X71461428Y120477620D01*
X71556666Y120477620D01*
X71699523Y120430000D01*
X71747142Y120382381D01*
X72699523Y119477620D02*
X72128095Y119477620D01*
X72413809Y119477620D02*
X72413809Y120477620D01*
X72318571Y120334762D01*
X72223333Y120239524D01*
X72128095Y120191905D01*
X73651904Y119477620D02*
X73080476Y119477620D01*
X73366190Y119477620D02*
X73366190Y120477620D01*
X73270952Y120334762D01*
X73175714Y120239524D01*
X73080476Y120191905D01*
X69857142Y68137858D02*
X69809523Y68090239D01*
X69666666Y68042620D01*
X69571428Y68042620D01*
X69428571Y68090239D01*
X69333333Y68185477D01*
X69285714Y68280715D01*
X69238095Y68471191D01*
X69238095Y68614048D01*
X69285714Y68804524D01*
X69333333Y68899762D01*
X69428571Y68995000D01*
X69571428Y69042620D01*
X69666666Y69042620D01*
X69809523Y68995000D01*
X69857142Y68947381D01*
X70809523Y68042620D02*
X70238095Y68042620D01*
X70523809Y68042620D02*
X70523809Y69042620D01*
X70428571Y68899762D01*
X70333333Y68804524D01*
X70238095Y68756905D01*
X71190476Y68947381D02*
X71238095Y68995000D01*
X71333333Y69042620D01*
X71571428Y69042620D01*
X71666666Y68995000D01*
X71714285Y68947381D01*
X71761904Y68852143D01*
X71761904Y68756905D01*
X71714285Y68614048D01*
X71142857Y68042620D01*
X71761904Y68042620D01*
X58412142Y142432858D02*
X58364523Y142385239D01*
X58221666Y142337620D01*
X58126428Y142337620D01*
X57983571Y142385239D01*
X57888333Y142480477D01*
X57840714Y142575715D01*
X57793095Y142766191D01*
X57793095Y142909048D01*
X57840714Y143099524D01*
X57888333Y143194762D01*
X57983571Y143290000D01*
X58126428Y143337620D01*
X58221666Y143337620D01*
X58364523Y143290000D01*
X58412142Y143242381D01*
X59364523Y142337620D02*
X58793095Y142337620D01*
X59078809Y142337620D02*
X59078809Y143337620D01*
X58983571Y143194762D01*
X58888333Y143099524D01*
X58793095Y143051905D01*
X59697857Y143337620D02*
X60316904Y143337620D01*
X59983571Y142956667D01*
X60126428Y142956667D01*
X60221666Y142909048D01*
X60269285Y142861429D01*
X60316904Y142766191D01*
X60316904Y142528096D01*
X60269285Y142432858D01*
X60221666Y142385239D01*
X60126428Y142337620D01*
X59840714Y142337620D01*
X59745476Y142385239D01*
X59697857Y142432858D01*
X40632142Y89727858D02*
X40584523Y89680239D01*
X40441666Y89632620D01*
X40346428Y89632620D01*
X40203571Y89680239D01*
X40108333Y89775477D01*
X40060714Y89870715D01*
X40013095Y90061191D01*
X40013095Y90204048D01*
X40060714Y90394524D01*
X40108333Y90489762D01*
X40203571Y90585000D01*
X40346428Y90632620D01*
X40441666Y90632620D01*
X40584523Y90585000D01*
X40632142Y90537381D01*
X41584523Y89632620D02*
X41013095Y89632620D01*
X41298809Y89632620D02*
X41298809Y90632620D01*
X41203571Y90489762D01*
X41108333Y90394524D01*
X41013095Y90346905D01*
X42441666Y90299286D02*
X42441666Y89632620D01*
X42203571Y90680239D02*
X41965476Y89965953D01*
X42584523Y89965953D01*
X40632142Y142432858D02*
X40584523Y142385239D01*
X40441666Y142337620D01*
X40346428Y142337620D01*
X40203571Y142385239D01*
X40108333Y142480477D01*
X40060714Y142575715D01*
X40013095Y142766191D01*
X40013095Y142909048D01*
X40060714Y143099524D01*
X40108333Y143194762D01*
X40203571Y143290000D01*
X40346428Y143337620D01*
X40441666Y143337620D01*
X40584523Y143290000D01*
X40632142Y143242381D01*
X41584523Y142337620D02*
X41013095Y142337620D01*
X41298809Y142337620D02*
X41298809Y143337620D01*
X41203571Y143194762D01*
X41108333Y143099524D01*
X41013095Y143051905D01*
X42441666Y143337620D02*
X42251190Y143337620D01*
X42155952Y143290000D01*
X42108333Y143242381D01*
X42013095Y143099524D01*
X41965476Y142909048D01*
X41965476Y142528096D01*
X42013095Y142432858D01*
X42060714Y142385239D01*
X42155952Y142337620D01*
X42346428Y142337620D01*
X42441666Y142385239D01*
X42489285Y142432858D01*
X42536904Y142528096D01*
X42536904Y142766191D01*
X42489285Y142861429D01*
X42441666Y142909048D01*
X42346428Y142956667D01*
X42155952Y142956667D01*
X42060714Y142909048D01*
X42013095Y142861429D01*
X41965476Y142766191D01*
X74922142Y142432858D02*
X74874523Y142385239D01*
X74731666Y142337620D01*
X74636428Y142337620D01*
X74493571Y142385239D01*
X74398333Y142480477D01*
X74350714Y142575715D01*
X74303095Y142766191D01*
X74303095Y142909048D01*
X74350714Y143099524D01*
X74398333Y143194762D01*
X74493571Y143290000D01*
X74636428Y143337620D01*
X74731666Y143337620D01*
X74874523Y143290000D01*
X74922142Y143242381D01*
X75874523Y142337620D02*
X75303095Y142337620D01*
X75588809Y142337620D02*
X75588809Y143337620D01*
X75493571Y143194762D01*
X75398333Y143099524D01*
X75303095Y143051905D01*
X76207857Y143337620D02*
X76874523Y143337620D01*
X76445952Y142337620D01*
X25392142Y89727858D02*
X25344523Y89680239D01*
X25201666Y89632620D01*
X25106428Y89632620D01*
X24963571Y89680239D01*
X24868333Y89775477D01*
X24820714Y89870715D01*
X24773095Y90061191D01*
X24773095Y90204048D01*
X24820714Y90394524D01*
X24868333Y90489762D01*
X24963571Y90585000D01*
X25106428Y90632620D01*
X25201666Y90632620D01*
X25344523Y90585000D01*
X25392142Y90537381D01*
X26344523Y89632620D02*
X25773095Y89632620D01*
X26058809Y89632620D02*
X26058809Y90632620D01*
X25963571Y90489762D01*
X25868333Y90394524D01*
X25773095Y90346905D01*
X26915952Y90204048D02*
X26820714Y90251667D01*
X26773095Y90299286D01*
X26725476Y90394524D01*
X26725476Y90442143D01*
X26773095Y90537381D01*
X26820714Y90585000D01*
X26915952Y90632620D01*
X27106428Y90632620D01*
X27201666Y90585000D01*
X27249285Y90537381D01*
X27296904Y90442143D01*
X27296904Y90394524D01*
X27249285Y90299286D01*
X27201666Y90251667D01*
X27106428Y90204048D01*
X26915952Y90204048D01*
X26820714Y90156429D01*
X26773095Y90108810D01*
X26725476Y90013572D01*
X26725476Y89823096D01*
X26773095Y89727858D01*
X26820714Y89680239D01*
X26915952Y89632620D01*
X27106428Y89632620D01*
X27201666Y89680239D01*
X27249285Y89727858D01*
X27296904Y89823096D01*
X27296904Y90013572D01*
X27249285Y90108810D01*
X27201666Y90156429D01*
X27106428Y90204048D01*
X61317142Y87537143D02*
X61364761Y87489524D01*
X61412380Y87346667D01*
X61412380Y87251429D01*
X61364761Y87108572D01*
X61269523Y87013334D01*
X61174285Y86965715D01*
X60983809Y86918096D01*
X60840952Y86918096D01*
X60650476Y86965715D01*
X60555238Y87013334D01*
X60460000Y87108572D01*
X60412380Y87251429D01*
X60412380Y87346667D01*
X60460000Y87489524D01*
X60507619Y87537143D01*
X61412380Y88489524D02*
X61412380Y87918096D01*
X61412380Y88203810D02*
X60412380Y88203810D01*
X60555238Y88108572D01*
X60650476Y88013334D01*
X60698095Y87918096D01*
X61412380Y88965715D02*
X61412380Y89156191D01*
X61364761Y89251429D01*
X61317142Y89299048D01*
X61174285Y89394286D01*
X60983809Y89441905D01*
X60602857Y89441905D01*
X60507619Y89394286D01*
X60460000Y89346667D01*
X60412380Y89251429D01*
X60412380Y89060953D01*
X60460000Y88965715D01*
X60507619Y88918096D01*
X60602857Y88870477D01*
X60840952Y88870477D01*
X60936190Y88918096D01*
X60983809Y88965715D01*
X61031428Y89060953D01*
X61031428Y89251429D01*
X60983809Y89346667D01*
X60936190Y89394286D01*
X60840952Y89441905D01*
X40632142Y119572858D02*
X40584523Y119525239D01*
X40441666Y119477620D01*
X40346428Y119477620D01*
X40203571Y119525239D01*
X40108333Y119620477D01*
X40060714Y119715715D01*
X40013095Y119906191D01*
X40013095Y120049048D01*
X40060714Y120239524D01*
X40108333Y120334762D01*
X40203571Y120430000D01*
X40346428Y120477620D01*
X40441666Y120477620D01*
X40584523Y120430000D01*
X40632142Y120382381D01*
X41013095Y120382381D02*
X41060714Y120430000D01*
X41155952Y120477620D01*
X41394047Y120477620D01*
X41489285Y120430000D01*
X41536904Y120382381D01*
X41584523Y120287143D01*
X41584523Y120191905D01*
X41536904Y120049048D01*
X40965476Y119477620D01*
X41584523Y119477620D01*
X42203571Y120477620D02*
X42298809Y120477620D01*
X42394047Y120430000D01*
X42441666Y120382381D01*
X42489285Y120287143D01*
X42536904Y120096667D01*
X42536904Y119858572D01*
X42489285Y119668096D01*
X42441666Y119572858D01*
X42394047Y119525239D01*
X42298809Y119477620D01*
X42203571Y119477620D01*
X42108333Y119525239D01*
X42060714Y119572858D01*
X42013095Y119668096D01*
X41965476Y119858572D01*
X41965476Y120096667D01*
X42013095Y120287143D01*
X42060714Y120382381D01*
X42108333Y120430000D01*
X42203571Y120477620D01*
X3342380Y58766667D02*
X4056666Y58766667D01*
X4199523Y58719048D01*
X4294761Y58623810D01*
X4342380Y58480953D01*
X4342380Y58385715D01*
X4342380Y59766667D02*
X4342380Y59195239D01*
X4342380Y59480953D02*
X3342380Y59480953D01*
X3485238Y59385715D01*
X3580476Y59290477D01*
X3628095Y59195239D01*
X5548380Y117012667D02*
X6262666Y117012667D01*
X6405523Y116965048D01*
X6500761Y116869810D01*
X6548380Y116726953D01*
X6548380Y116631715D01*
X5643619Y117441239D02*
X5596000Y117488858D01*
X5548380Y117584096D01*
X5548380Y117822191D01*
X5596000Y117917429D01*
X5643619Y117965048D01*
X5738857Y118012667D01*
X5834095Y118012667D01*
X5976952Y117965048D01*
X6548380Y117393620D01*
X6548380Y118012667D01*
X15581333Y145438858D02*
X15533714Y145391239D01*
X15390857Y145343620D01*
X15295619Y145343620D01*
X15152761Y145391239D01*
X15057523Y145486477D01*
X15009904Y145581715D01*
X14962285Y145772191D01*
X14962285Y145915048D01*
X15009904Y146105524D01*
X15057523Y146200762D01*
X15152761Y146296000D01*
X15295619Y146343620D01*
X15390857Y146343620D01*
X15533714Y146296000D01*
X15581333Y146248381D01*
X16533714Y145343620D02*
X15962285Y145343620D01*
X16248000Y145343620D02*
X16248000Y146343620D01*
X16152761Y146200762D01*
X16057523Y146105524D01*
X15962285Y146057905D01*
X36282380Y102816905D02*
X37091904Y102816905D01*
X37187142Y102864524D01*
X37234761Y102912143D01*
X37282380Y103007381D01*
X37282380Y103197858D01*
X37234761Y103293096D01*
X37187142Y103340715D01*
X37091904Y103388334D01*
X36282380Y103388334D01*
X37282380Y104388334D02*
X37282380Y103816905D01*
X37282380Y104102620D02*
X36282380Y104102620D01*
X36425238Y104007381D01*
X36520476Y103912143D01*
X36568095Y103816905D01*
X36615714Y105245477D02*
X37282380Y105245477D01*
X36234761Y105007381D02*
X36949047Y104769286D01*
X36949047Y105388334D01*
X51522380Y97736905D02*
X52331904Y97736905D01*
X52427142Y97784524D01*
X52474761Y97832143D01*
X52522380Y97927381D01*
X52522380Y98117858D01*
X52474761Y98213096D01*
X52427142Y98260715D01*
X52331904Y98308334D01*
X51522380Y98308334D01*
X52522380Y99308334D02*
X52522380Y98736905D01*
X52522380Y99022620D02*
X51522380Y99022620D01*
X51665238Y98927381D01*
X51760476Y98832143D01*
X51808095Y98736905D01*
X51522380Y100213096D02*
X51522380Y99736905D01*
X51998571Y99689286D01*
X51950952Y99736905D01*
X51903333Y99832143D01*
X51903333Y100070239D01*
X51950952Y100165477D01*
X51998571Y100213096D01*
X52093809Y100260715D01*
X52331904Y100260715D01*
X52427142Y100213096D01*
X52474761Y100165477D01*
X52522380Y100070239D01*
X52522380Y99832143D01*
X52474761Y99736905D01*
X52427142Y99689286D01*
X88733333Y125192620D02*
X88400000Y125668810D01*
X88161904Y125192620D02*
X88161904Y126192620D01*
X88542857Y126192620D01*
X88638095Y126145000D01*
X88685714Y126097381D01*
X88733333Y126002143D01*
X88733333Y125859286D01*
X88685714Y125764048D01*
X88638095Y125716429D01*
X88542857Y125668810D01*
X88161904Y125668810D01*
X89638095Y126192620D02*
X89161904Y126192620D01*
X89114285Y125716429D01*
X89161904Y125764048D01*
X89257142Y125811667D01*
X89495238Y125811667D01*
X89590476Y125764048D01*
X89638095Y125716429D01*
X89685714Y125621191D01*
X89685714Y125383096D01*
X89638095Y125287858D01*
X89590476Y125240239D01*
X89495238Y125192620D01*
X89257142Y125192620D01*
X89161904Y125240239D01*
X89114285Y125287858D01*
X58618380Y111381334D02*
X58142190Y111048000D01*
X58618380Y110809905D02*
X57618380Y110809905D01*
X57618380Y111190858D01*
X57666000Y111286096D01*
X57713619Y111333715D01*
X57808857Y111381334D01*
X57951714Y111381334D01*
X58046952Y111333715D01*
X58094571Y111286096D01*
X58142190Y111190858D01*
X58142190Y110809905D01*
X57618380Y112238477D02*
X57618380Y112048000D01*
X57666000Y111952762D01*
X57713619Y111905143D01*
X57856476Y111809905D01*
X58046952Y111762286D01*
X58427904Y111762286D01*
X58523142Y111809905D01*
X58570761Y111857524D01*
X58618380Y111952762D01*
X58618380Y112143239D01*
X58570761Y112238477D01*
X58523142Y112286096D01*
X58427904Y112333715D01*
X58189809Y112333715D01*
X58094571Y112286096D01*
X58046952Y112238477D01*
X57999333Y112143239D01*
X57999333Y111952762D01*
X58046952Y111857524D01*
X58094571Y111809905D01*
X58189809Y111762286D01*
X79981666Y52751620D02*
X79981666Y52037334D01*
X79934047Y51894477D01*
X79838809Y51799239D01*
X79695952Y51751620D01*
X79600714Y51751620D01*
X80362619Y52751620D02*
X80981666Y52751620D01*
X80648333Y52370667D01*
X80791190Y52370667D01*
X80886428Y52323048D01*
X80934047Y52275429D01*
X80981666Y52180191D01*
X80981666Y51942096D01*
X80934047Y51846858D01*
X80886428Y51799239D01*
X80791190Y51751620D01*
X80505476Y51751620D01*
X80410238Y51799239D01*
X80362619Y51846858D01*
M02*
