M48
; DRILL file {KiCad (5.1.9)-1} date 10/08/25 16:02:51
; FORMAT={-:-/ absolute / metric / decimal}
; #@! TF.CreationDate,2025-10-08T16:02:51+09:00
; #@! TF.GenerationSoftware,Kicad,Pcbnew,(5.1.9)-1
FMAT,2
METRIC
T1C0.300
T2C0.800
T3C1.000
T4C4.000
%
G90
G05
T1
X13.182Y62.487
X15.125Y70.326
X15.169Y54.405
X20.268Y97.103
X21.075Y85.343
X27.108Y68.169
X27.118Y122.226
X28.852Y68.032
X31.579Y112.82
X31.989Y120.579
X35.139Y77.35
X38.784Y111.031
X43.082Y70.744
X43.095Y110.637
X43.227Y61.561
X44.03Y122.0
X44.209Y89.108
X45.027Y103.049
X46.483Y90.261
X47.465Y133.837
X48.233Y67.266
X49.668Y95.405
X51.516Y88.974
X57.818Y62.915
X59.958Y44.968
X60.22Y130.914
X61.451Y95.415
X63.902Y69.662
X65.121Y63.331
X65.576Y61.784
X65.626Y119.246
X67.121Y121.955
X72.601Y50.158
X74.918Y102.087
X75.149Y51.039
X76.835Y82.383
X83.835Y81.926
T2
X15.536Y150.836
X15.536Y148.336
X17.145Y139.615
X17.145Y137.075
X17.145Y134.535
X17.145Y131.995
X17.145Y129.455
X17.145Y126.915
X17.145Y124.375
X17.145Y117.39
X17.145Y114.85
X17.145Y112.31
X17.145Y109.77
X17.145Y107.23
X17.145Y104.69
X17.145Y102.15
X17.145Y99.61
X17.145Y97.07
X17.145Y94.53
X17.78Y86.91
X17.78Y84.37
X17.78Y81.83
X17.78Y79.29
X17.78Y76.75
X17.78Y74.21
X17.78Y71.67
X17.78Y64.685
X17.78Y62.145
X17.78Y59.605
X17.78Y57.065
X17.78Y54.525
X17.78Y51.985
X17.78Y49.445
X17.78Y46.905
X19.598Y142.748
X19.725Y120.565
X20.36Y90.085
X20.36Y67.86
X22.098Y142.748
X22.225Y120.565
X22.86Y90.085
X22.86Y67.86
X24.765Y139.615
X24.765Y137.075
X24.765Y134.535
X24.765Y131.995
X24.765Y129.455
X24.765Y126.915
X24.765Y124.375
X24.765Y117.39
X24.765Y114.85
X24.765Y112.31
X24.765Y109.77
X24.765Y107.23
X24.765Y104.69
X24.765Y102.15
X24.765Y99.61
X24.765Y97.07
X24.765Y94.53
X25.4Y86.91
X25.4Y84.37
X25.4Y81.83
X25.4Y79.29
X25.4Y76.75
X25.4Y74.21
X25.4Y71.67
X25.4Y64.685
X25.4Y62.145
X25.4Y59.605
X25.4Y57.065
X25.4Y54.525
X25.4Y51.985
X25.4Y49.445
X25.4Y46.905
X33.02Y139.615
X33.02Y137.075
X33.02Y134.535
X33.02Y131.995
X33.02Y129.455
X33.02Y126.915
X33.02Y124.375
X33.02Y116.755
X33.02Y114.215
X33.02Y111.675
X33.02Y109.135
X33.02Y106.595
X33.02Y104.055
X33.02Y101.515
X33.02Y98.975
X33.02Y86.91
X33.02Y84.37
X33.02Y81.83
X33.02Y79.29
X33.02Y76.75
X33.02Y74.21
X33.02Y71.67
X33.02Y64.685
X33.02Y62.145
X33.02Y59.605
X33.02Y57.065
X33.02Y54.525
X33.02Y51.985
X33.02Y49.445
X33.02Y46.905
X35.6Y142.79
X35.6Y119.93
X35.6Y90.085
X35.6Y67.86
X38.1Y142.79
X38.1Y119.93
X38.1Y90.085
X38.1Y67.86
X40.64Y139.615
X40.64Y137.075
X40.64Y134.535
X40.64Y131.995
X40.64Y129.455
X40.64Y126.915
X40.64Y124.375
X40.64Y116.755
X40.64Y114.215
X40.64Y111.675
X40.64Y109.135
X40.64Y106.595
X40.64Y104.055
X40.64Y101.515
X40.64Y98.975
X40.64Y86.91
X40.64Y84.37
X40.64Y81.83
X40.64Y79.29
X40.64Y76.75
X40.64Y74.21
X40.64Y71.67
X40.64Y64.685
X40.64Y62.145
X40.64Y59.605
X40.64Y57.065
X40.64Y54.525
X40.64Y51.985
X40.64Y49.445
X40.64Y46.905
X48.26Y119.93
X48.26Y112.31
X48.26Y109.77
X48.26Y107.23
X48.26Y104.69
X48.26Y102.15
X48.26Y99.61
X48.26Y97.07
X48.26Y94.53
X48.26Y86.91
X48.26Y84.37
X48.26Y81.83
X48.26Y79.29
X48.26Y76.75
X48.26Y74.21
X48.26Y71.67
X48.26Y64.685
X48.26Y62.145
X48.26Y59.605
X48.26Y57.065
X48.26Y54.525
X48.26Y51.985
X48.26Y49.445
X48.26Y46.905
X50.8Y139.615
X50.8Y137.075
X50.8Y134.535
X50.8Y131.995
X50.8Y129.455
X50.8Y126.915
X50.8Y124.375
X50.84Y115.485
X50.84Y90.085
X50.84Y67.86
X53.34Y115.485
X53.34Y90.085
X53.34Y67.86
X53.38Y143.13
X55.88Y143.13
X55.88Y119.93
X55.88Y112.31
X55.88Y109.77
X55.88Y107.23
X55.88Y104.69
X55.88Y102.15
X55.88Y99.61
X55.88Y97.07
X55.88Y94.53
X55.88Y86.91
X55.88Y84.37
X55.88Y81.83
X55.88Y79.29
X55.88Y76.75
X55.88Y74.21
X55.88Y71.67
X55.88Y64.685
X55.88Y62.145
X55.88Y59.605
X55.88Y57.065
X55.88Y54.525
X55.88Y51.985
X55.88Y49.445
X55.88Y46.905
X58.42Y139.615
X58.42Y137.075
X58.42Y134.535
X58.42Y131.995
X58.42Y129.455
X58.42Y126.915
X58.42Y124.375
X60.325Y118.025
X60.325Y110.405
X60.325Y106.595
X60.325Y104.095
X60.96Y85.005
X60.96Y82.505
X62.865Y64.685
X62.865Y62.145
X62.865Y59.605
X62.865Y57.065
X62.865Y54.525
X62.865Y51.985
X62.865Y49.445
X62.865Y46.905
X64.135Y116.755
X64.135Y114.215
X64.135Y111.675
X64.135Y109.135
X64.135Y106.595
X64.135Y104.055
X64.135Y101.515
X64.135Y92.625
X64.135Y77.385
X65.405Y68.495
X66.675Y92.625
X66.675Y77.385
X66.715Y119.93
X67.31Y139.615
X67.31Y137.075
X67.31Y134.535
X67.31Y131.995
X67.31Y129.455
X67.31Y126.915
X67.31Y124.375
X67.905Y68.495
X69.215Y119.93
X69.215Y92.625
X69.215Y77.385
X69.89Y142.79
X70.485Y64.685
X70.485Y62.145
X70.485Y59.605
X70.485Y57.065
X70.485Y54.525
X70.485Y51.985
X70.485Y49.445
X70.485Y46.905
X71.755Y116.755
X71.755Y114.215
X71.755Y111.675
X71.755Y109.135
X71.755Y106.595
X71.755Y104.055
X71.755Y101.515
X71.755Y92.625
X71.755Y77.385
X72.39Y142.79
X74.295Y92.625
X74.295Y77.385
X74.93Y139.615
X74.93Y137.075
X74.93Y134.535
X74.93Y131.995
X74.93Y129.455
X74.93Y126.915
X74.93Y124.375
X76.835Y92.625
X76.835Y77.385
X78.74Y121.2
X78.74Y114.215
X78.74Y111.675
X78.74Y109.135
X78.74Y106.595
X78.74Y104.055
X78.74Y101.515
X78.74Y98.975
X79.0Y126.0
X79.375Y92.625
X79.375Y77.385
X81.28Y117.39
X81.915Y139.615
X81.915Y131.995
X81.915Y92.625
X81.915Y77.385
X83.78Y117.39
X84.455Y92.625
X84.455Y77.385
X86.36Y121.2
X86.36Y114.215
X86.36Y111.675
X86.36Y109.135
X86.36Y106.595
X86.36Y104.055
X86.36Y101.515
X86.36Y98.975
X86.62Y126.0
X86.995Y92.625
X86.995Y77.385
X89.535Y92.625
X89.535Y77.385
X91.44Y114.175
X91.44Y111.675
X91.44Y106.595
X91.44Y98.975
X92.075Y92.625
X92.075Y77.385
X94.615Y92.625
X94.615Y77.385
X97.155Y92.625
X97.155Y77.385
T3
X2.62Y109.69
X2.62Y107.15
X2.62Y104.61
X2.62Y102.07
X2.62Y99.53
X2.62Y96.99
X2.62Y94.45
X2.62Y91.91
X2.62Y89.37
X2.62Y86.83
X2.62Y84.29
X2.62Y81.75
X2.62Y79.21
X2.62Y76.67
X2.62Y74.13
X2.62Y71.59
X2.62Y69.05
X2.62Y66.51
X2.62Y63.97
X2.62Y61.43
X4.826Y129.836
X4.826Y127.296
X4.826Y124.756
X4.826Y122.216
X4.826Y119.676
X5.16Y109.69
X5.16Y107.15
X5.16Y104.61
X5.16Y102.07
X5.16Y99.53
X5.16Y96.99
X5.16Y94.45
X5.16Y91.91
X5.16Y89.37
X5.16Y86.83
X5.16Y84.29
X5.16Y81.75
X5.16Y79.21
X5.16Y76.67
X5.16Y74.13
X5.16Y71.59
X5.16Y69.05
X5.16Y66.51
X5.16Y63.97
X5.16Y61.43
X7.366Y129.836
X7.366Y127.296
X7.366Y124.756
X7.366Y122.216
X7.366Y119.676
X79.045Y64.694
X79.045Y62.154
X79.045Y59.614
X79.045Y57.074
X79.045Y54.534
X81.585Y64.694
X81.585Y62.154
X81.585Y59.614
X81.585Y57.074
X81.585Y54.534
T4
X5.0Y155.0
X5.0Y5.0
X85.0Y155.0
X85.0Y5.0
T0
M30
